<svg xmlns="http://www.w3.org/2000/svg" version="1.0" preserveAspectRatio="xMidYMid meet" viewBox="510.01 261.07 1281.49 635.93">
<g transform="translate(0.000000,1600.000000) scale(0.100000,-0.100000)" fill="#000000" stroke="none">
<path d="M14024 13375 c-6 -15 11 -45 26 -45 12 0 20 28 14 45 -8 19 -33 19 -40 0z"/>
<path d="M12150 13340 c-11 -7 -12 -12 -3 -21 14 -14 46 -4 41 13 -6 16 -20 19 -38 8z"/>
<path d="M12710 13263 c-14 -2 -45 -10 -70 -18 -25 -8 -72 -17 -105 -21 -33 -3 -67 -12 -75 -19 -8 -7 -42 -15 -74 -18 -95 -9 -139 -63 -108 -131 17 -38 32 -92 32 -116 0 -22 -2 -23 -72 -18 -42 3 -111 0 -163 -9 -116 -18 -136 -40 -96 -108 16 -27 23 -30 62 -27 24 1 61 12 82 22 21 11 44 20 51 20 37 0 128 45 137 67 5 13 15 23 22 23 8 0 22 9 33 21 13 15 28 20 51 17 30 -4 33 -1 39 29 8 43 22 49 119 56 63 5 85 2 109 -11 44 -25 76 -57 76 -76 0 -11 9 -16 29 -16 16 0 31 -6 35 -15 3 -8 15 -15 26 -15 11 0 23 7 26 15 12 31 33 16 31 -22 -2 -44 22 -57 38 -21 13 29 62 37 72 12 4 -10 2 -19 -5 -22 -19 -6 -14 -20 9 -27 13 -4 27 0 40 11 18 17 20 16 42 -3 21 -19 41 -23 217 -49 19 -3 46 -12 58 -21 21 -13 26 -13 42 2 17 16 21 16 42 1 32 -23 48 -20 48 9 0 34 27 44 46 16 20 -29 52 -27 66 4 13 29 25 31 49 9 16 -14 18 -14 29 6 23 44 -22 68 -70 38 -22 -14 -48 1 -36 21 9 15 129 14 143 0 7 -7 20 -8 30 -5 16 7 16 9 2 19 -9 7 -19 22 -23 35 -4 13 -15 22 -27 22 -10 0 -19 5 -19 10 0 6 7 10 16 10 37 0 96 -49 113 -94 10 -25 12 -26 34 -11 14 8 31 13 40 9 8 -3 25 -1 36 6 18 9 23 7 31 -16 11 -29 7 -52 -17 -100 -23 -44 -12 -64 35 -64 42 0 68 21 90 73 7 15 17 25 22 22 14 -9 12 -63 -4 -93 -14 -29 -26 -56 -47 -111 -11 -31 -11 -35 12 -52 22 -18 23 -20 7 -30 -29 -16 -22 -39 11 -39 36 0 48 -25 21 -42 -11 -7 -20 -16 -20 -20 0 -10 56 -38 63 -32 12 12 45 -8 51 -31 5 -19 13 -25 32 -25 19 0 29 -7 37 -29 10 -26 16 -30 46 -28 29 2 37 -2 39 -18 2 -11 17 -31 33 -44 29 -22 31 -23 43 -5 10 13 25 17 56 16 31 -2 48 2 64 17 34 32 96 19 96 -19 0 -20 -6 -30 -22 -35 -21 -6 -21 -8 -4 -12 10 -3 21 -1 25 4 3 6 18 13 34 17 36 9 38 46 2 46 -28 0 -30 7 -11 33 17 21 32 22 44 1 6 -11 17 -15 32 -11 12 3 28 3 36 0 18 -7 18 -33 0 -33 -8 0 -17 -4 -20 -9 -8 -12 48 -71 67 -71 10 0 17 -5 17 -11 0 -8 -14 -9 -44 -5 -40 6 -45 5 -51 -15 -5 -15 -2 -26 9 -34 30 -23 20 -61 -21 -82 -47 -22 -56 -49 -16 -48 27 0 28 -2 28 -45 0 -43 1 -45 31 -48 37 -4 45 -22 37 -82 -4 -27 0 -47 11 -64 9 -14 16 -45 16 -68 0 -28 9 -57 25 -83 13 -22 25 -47 25 -54 0 -8 11 -26 24 -40 13 -15 28 -39 33 -56 11 -35 37 -40 41 -7 2 12 7 22 11 22 12 0 48 -43 55 -66 3 -11 22 -28 40 -37 56 -26 135 -87 141 -108 4 -11 23 -27 43 -37 26 -12 44 -31 60 -63 20 -39 27 -45 49 -41 19 3 34 -4 63 -33 25 -25 52 -40 76 -44 35 -6 61 -31 32 -31 -8 0 -29 -11 -48 -25 -20 -15 -47 -25 -67 -25 -20 0 -41 -8 -53 -20 -11 -11 -28 -20 -37 -20 -22 0 -122 -68 -137 -93 -9 -15 -6 -22 16 -42 22 -18 30 -38 38 -90 16 -101 3 -107 -110 -43 -8 4 -26 14 -40 20 -35 18 -85 52 -105 72 -9 9 -27 16 -41 16 -14 0 -27 7 -30 15 -4 8 -14 15 -24 15 -9 0 -29 9 -43 20 -14 11 -34 20 -45 20 -12 0 -61 27 -110 60 -48 33 -93 60 -100 60 -6 0 -15 6 -19 13 -9 13 -51 39 -95 59 -16 7 -28 16 -28 20 0 4 -16 14 -35 22 -19 8 -35 19 -35 25 0 5 -14 12 -31 16 -17 4 -33 13 -36 21 -3 8 -20 21 -37 29 -17 8 -44 24 -61 35 -16 11 -43 27 -60 36 -16 8 -48 26 -70 39 -22 14 -55 32 -72 42 -18 9 -33 20 -33 25 0 4 -6 8 -12 8 -7 0 -38 17 -69 39 -31 21 -66 42 -77 45 -12 4 -22 12 -22 17 0 6 -12 15 -27 22 -37 16 -110 64 -118 77 -3 5 -13 10 -22 10 -9 0 -25 7 -35 17 -21 18 -48 35 -95 57 -18 8 -33 19 -33 25 0 5 -10 13 -22 17 -13 3 -30 12 -38 19 -8 7 -42 27 -75 44 -32 18 -62 35 -65 40 -3 5 -20 17 -39 27 -62 35 -117 71 -155 102 -36 29 -81 25 -118 -10 -45 -43 -101 -89 -122 -100 -11 -6 -26 -16 -32 -22 -9 -10 -43 -38 -128 -111 -13 -11 -35 -28 -48 -38 -12 -10 -72 -56 -133 -102 -60 -47 -121 -93 -133 -102 -13 -10 -34 -27 -47 -38 -13 -11 -38 -31 -55 -45 -31 -24 -42 -33 -96 -75 -14 -11 -33 -27 -42 -35 -30 -28 -116 -97 -133 -106 -9 -5 -45 -34 -79 -64 -34 -30 -79 -67 -100 -81 -21 -14 -45 -32 -54 -40 -8 -8 -27 -23 -41 -34 -14 -11 -42 -35 -63 -53 -20 -18 -49 -40 -64 -48 -16 -8 -28 -19 -28 -25 0 -5 -7 -12 -15 -15 -8 -4 -28 -18 -44 -33 -15 -14 -41 -33 -57 -41 -16 -8 -36 -21 -46 -30 -9 -8 -40 -31 -68 -50 -28 -19 -65 -46 -81 -59 -39 -31 -48 -21 -55 60 -5 64 -5 64 97 144 56 44 122 99 146 123 24 23 47 42 51 42 3 0 15 9 27 20 11 10 58 52 105 92 47 40 117 105 156 144 39 38 116 107 171 152 55 44 107 87 114 95 8 7 75 62 149 122 74 59 142 114 150 122 47 43 72 63 78 63 4 0 26 17 49 38 23 20 54 46 67 57 14 11 45 37 68 57 24 21 46 38 50 38 4 0 20 12 36 28 16 15 48 43 71 62 24 19 59 48 77 64 37 31 71 30 107 -1 9 -9 26 -21 36 -27 11 -6 52 -30 93 -53 40 -23 117 -70 170 -105 54 -35 120 -76 148 -93 52 -31 125 -78 169 -108 14 -9 40 -24 57 -31 17 -8 36 -22 44 -30 7 -9 16 -16 21 -16 4 0 45 -25 90 -56 45 -31 93 -60 106 -65 13 -5 23 -13 23 -18 0 -5 9 -13 21 -16 11 -4 69 -40 129 -80 60 -40 118 -76 130 -80 23 -7 152 -92 160 -105 3 -5 18 -12 33 -15 16 -4 31 -14 34 -21 3 -8 11 -14 19 -14 7 0 25 -11 40 -25 15 -14 32 -25 39 -25 7 0 18 -7 25 -15 19 -23 60 -19 60 5 0 13 -7 20 -20 20 -11 0 -20 5 -20 10 0 15 26 12 39 -4 7 -8 11 -30 9 -48 -3 -30 0 -33 25 -36 15 -2 33 -12 40 -23 6 -10 16 -19 20 -19 11 0 53 -32 113 -84 66 -57 82 -25 44 84 -11 30 -19 62 -20 70 0 9 -9 33 -20 55 -11 22 -20 46 -20 55 0 8 -8 31 -19 50 -10 19 -21 52 -25 74 -7 38 -74 181 -122 261 -13 22 -26 47 -30 55 -11 28 -25 55 -49 95 -13 22 -32 54 -41 70 -69 125 -268 353 -434 498 -94 82 -277 207 -375 257 -22 11 -47 24 -55 28 -58 33 -101 51 -133 57 -20 4 -41 13 -48 21 -6 8 -23 14 -37 14 -14 0 -44 8 -66 19 -62 28 -214 62 -323 72 -207 18 -615 3 -677 -26 -17 -8 -58 -17 -91 -21 -33 -4 -69 -13 -80 -20 -11 -7 -39 -16 -62 -20 -24 -3 -48 -13 -54 -20 -6 -8 -19 -14 -28 -14 -9 0 -34 -9 -55 -19 -21 -11 -52 -23 -69 -27 -18 -3 -40 -15 -50 -25 -10 -11 -27 -19 -38 -19 -12 0 -32 -9 -46 -20 -14 -11 -32 -20 -39 -20 -7 0 -19 -6 -26 -12 -17 -17 -90 -65 -104 -69 -13 -4 -67 -48 -150 -121 -30 -27 -59 -48 -64 -48 -29 0 -33 96 -5 107 7 2 16 19 19 37 4 18 15 41 26 51 24 22 27 100 5 129 -19 25 -20 126 -2 151 12 15 23 17 76 12 34 -3 68 -10 75 -16 15 -13 26 -5 26 21 0 23 23 33 47 19 25 -13 47 1 39 25 -3 11 1 30 9 44 8 14 19 35 25 48 14 31 27 20 35 -29 7 -39 46 -89 71 -89 35 0 72 88 44 105 -5 3 -10 22 -10 41 0 41 -15 49 -64 36 -24 -7 -47 -7 -70 0 -29 9 -40 8 -63 -7 -40 -27 -141 -82 -188 -104 -22 -10 -46 -26 -54 -35 -7 -9 -18 -16 -24 -16 -6 0 -17 -7 -26 -15 -25 -22 -100 -89 -168 -148 -34 -29 -78 -74 -99 -98 -20 -24 -39 -46 -43 -49 -3 -3 -15 -23 -26 -44 -11 -22 -43 -63 -71 -90 -51 -51 -51 -51 -50 -216 1 -165 1 -165 46 -165 45 0 45 0 47 -605 3 -567 -3 -741 -25 -740 -4 0 -20 14 -37 31 -25 25 -30 41 -36 102 -5 43 -3 85 3 105 14 45 5 66 -21 50 -16 -10 -24 -7 -54 19 -19 17 -41 33 -49 35 -15 5 -22 1349 -6 1380 4 9 3 78 -3 155 -12 151 -32 203 -89 225 -14 5 -32 16 -41 24 -26 24 -211 24 -272 1 -59 -23 -66 -37 -56 -112 4 -33 8 -148 8 -255 1 -220 13 -345 36 -390 14 -27 20 -30 65 -30 42 0 51 4 70 29 19 27 19 34 8 72 -7 23 -23 48 -35 56 -29 19 -29 35 -2 59 17 15 20 26 15 59 -4 22 -9 87 -11 145 -3 58 -7 128 -10 155 -4 43 -2 48 9 33 28 -38 58 -7 33 34 -20 31 -20 88 -1 88 8 0 14 -4 14 -10 0 -15 21 -12 42 7 10 9 21 13 24 10 18 -18 23 -150 26 -757 4 -976 5 -958 -50 -995 -61 -41 -69 -36 -77 52 -4 42 -6 142 -5 222 3 181 5 168 -29 176 -16 3 -35 13 -42 21 -6 8 -27 14 -45 14 -40 0 -59 33 -50 85 3 16 6 122 7 235 3 205 3 205 -44 206 -27 1 -59 10 -75 20 -23 16 -48 19 -154 20 -70 0 -130 3 -134 6 -3 4 0 16 6 28 11 20 9 25 -13 44 -25 20 -25 25 -29 171 -3 150 -3 150 97 152 131 3 142 7 162 48 15 32 15 41 2 92 -21 81 -45 96 -161 101 -53 2 -106 9 -124 18 -17 8 -55 16 -85 18 -31 2 -72 13 -96 25 -31 17 -55 21 -95 19 -83 -5 -65 -28 35 -43 23 -4 37 -11 34 -18 -6 -20 -1362 -13 -1395 7 -6 3 -32 1 -57 -5 -51 -13 -95 -1 -95 25 0 24 -34 36 -98 36 -63 0 -72 7 -72 53 0 12 -9 39 -20 60 -11 20 -20 47 -20 60 0 12 -9 39 -20 60 -11 20 -20 47 -20 59 -1 13 -9 41 -20 63 -11 22 -20 51 -20 65 -1 57 -10 70 -50 70 -45 0 -69 -23 -77 -76 -3 -22 -14 -56 -24 -76 -11 -21 -19 -47 -19 -59 0 -11 -7 -33 -15 -47 -16 -30 -40 -95 -58 -157 -17 -58 -52 -102 -92 -115 -26 -9 -437 -21 -725 -21 -8 0 -35 5 -60 11 -69 18 -112 15 -130 -10 -8 -12 -30 -38 -47 -56 -29 -31 -33 -41 -33 -91 0 -41 5 -63 18 -77 21 -23 52 -102 52 -129 0 -33 43 -64 101 -72 30 -4 70 -14 89 -22 22 -9 84 -17 166 -20 125 -5 132 -5 151 16 20 22 33 78 33 150 1 71 49 101 166 101 116 0 114 3 112 -232 -1 -191 -1 -191 26 -212 100 -77 91 -41 93 -378 1 -167 3 -386 4 -488 1 -110 -3 -186 -9 -188 -5 -1 -17 -9 -28 -16 -17 -13 -17 -15 9 -46 27 -32 27 -32 27 -453 0 -345 3 -445 17 -551 17 -125 17 -129 -2 -142 -25 -18 -79 -18 -95 1 -7 8 -11 37 -9 67 1 29 1 290 1 579 -2 526 -2 526 -40 567 -41 44 -88 56 -110 30 -6 -9 -7 -178 -1 -498 4 -267 9 -549 10 -627 1 -103 -2 -147 -11 -158 -17 -21 11 -31 42 -14 13 7 73 14 141 16 135 3 140 5 132 41 -6 31 24 94 61 129 26 24 31 57 12 69 -6 4 -19 -2 -29 -14 -23 -29 -26 -28 -38 16 -15 52 -14 57 15 91 35 42 79 42 119 2 25 -27 27 -34 20 -73 -4 -24 -7 -63 -6 -87 1 -32 -5 -52 -23 -76 -13 -17 -28 -49 -32 -69 -3 -21 -17 -49 -30 -63 -13 -14 -24 -34 -24 -45 0 -10 -20 -40 -44 -66 -26 -28 -46 -61 -51 -82 -4 -19 -18 -53 -33 -75 -62 -98 -53 -80 -125 -235 -25 -53 -85 -168 -114 -220 -8 -14 -21 -41 -29 -60 -9 -19 -31 -51 -49 -70 -52 -56 -72 -97 -58 -120 11 -16 7 -26 -27 -72 -22 -29 -40 -61 -40 -71 0 -10 -13 -30 -29 -45 -21 -19 -31 -40 -36 -74 -4 -26 -15 -54 -26 -64 -10 -9 -23 -32 -29 -50 -14 -43 -26 -43 -39 -1 -21 68 -22 93 -6 107 9 8 15 29 15 59 0 25 7 64 15 86 8 22 14 68 15 103 0 57 2 63 25 72 27 10 34 40 10 40 -8 0 -15 7 -15 15 0 18 12 19 28 3 15 -15 64 27 60 52 -7 40 47 93 106 102 14 2 24 18 34 56 10 35 23 59 39 69 31 21 56 69 48 93 -9 28 -34 25 -45 -5 -5 -14 -22 -31 -37 -38 -26 -11 -35 -18 -82 -59 -11 -9 -30 -22 -42 -29 -27 -14 -44 -27 -67 -51 -9 -10 -22 -18 -29 -18 -6 0 -16 -6 -20 -14 -10 -16 -120 -106 -130 -106 -5 0 -23 -15 -41 -34 -33 -34 -33 -34 -20 -257 6 -123 12 -299 12 -390 1 -191 -3 -202 -77 -213 -23 -3 -58 -9 -78 -12 -32 -5 -37 -3 -47 23 -13 34 -32 417 -32 638 0 160 0 160 34 188 19 15 39 27 44 27 5 0 17 9 27 20 10 11 24 20 30 20 7 0 18 7 25 15 10 12 66 53 145 105 13 8 57 39 100 68 42 28 80 52 84 52 5 0 20 11 35 25 15 14 33 25 41 25 8 0 19 9 25 20 6 11 16 20 23 20 21 1 67 48 67 70 0 22 -12 25 -41 10 -15 -9 -21 -7 -26 6 -4 10 -2 19 5 22 7 2 12 17 12 33 0 25 -4 29 -26 29 -30 0 -74 -41 -74 -69 0 -10 -9 -26 -20 -36 -11 -10 -20 -27 -20 -38 0 -18 -5 -19 -54 -13 -51 7 -55 6 -58 -15 -2 -17 -16 -26 -56 -39 -29 -10 -60 -24 -70 -33 -22 -20 -153 -28 -159 -9 -6 17 -30 15 -37 -3 -7 -20 -35 -19 -43 0 -7 21 52 74 75 68 10 -2 26 5 36 16 11 12 25 21 31 21 7 0 15 7 19 15 6 18 57 20 73 4 18 -18 46 -2 40 21 -4 16 5 25 45 45 52 26 70 27 49 1 -22 -26 -3 -34 44 -19 37 13 45 20 45 39 0 19 -5 24 -26 24 -52 0 -17 22 38 23 43 2 62 7 80 25 15 13 37 22 55 22 22 0 38 8 51 25 23 29 37 32 46 9 3 -9 15 -14 28 -12 24 3 30 33 13 71 -6 13 -2 17 16 17 13 0 39 9 57 20 33 20 33 20 0 54 -30 30 -35 32 -50 18 -25 -21 -124 -62 -178 -73 -25 -6 -56 -16 -71 -24 -14 -8 -50 -17 -80 -21 -29 -3 -65 -13 -78 -21 -13 -8 -51 -17 -85 -20 -33 -3 -71 -12 -83 -19 -23 -15 -222 -33 -444 -41 -95 -3 -140 -1 -188 12 -74 19 -94 10 -89 -39 3 -29 6 -30 78 -45 45 -9 130 -15 214 -16 108 0 140 -3 144 -14 2 -7 15 -23 28 -34 47 -41 28 -84 -42 -97 -99 -18 -249 -64 -271 -82 -8 -6 -42 -15 -74 -19 -33 -4 -68 -14 -78 -23 -10 -9 -27 -16 -39 -16 -12 0 -39 -9 -59 -20 -21 -11 -50 -20 -66 -20 -15 0 -47 -9 -70 -19 -23 -10 -51 -21 -62 -23 -14 -2 -20 -11 -20 -28 0 -25 1 -25 74 -22 41 2 89 9 107 17 18 7 55 17 81 21 26 4 70 15 96 25 26 11 62 19 80 19 18 0 50 9 72 19 22 10 53 21 70 25 16 4 35 12 41 17 25 21 129 68 136 61 7 -7 -36 -105 -58 -133 -6 -8 -14 -27 -18 -42 -4 -16 -22 -50 -41 -77 -19 -27 -37 -61 -41 -77 -4 -15 -13 -37 -20 -48 -6 -11 -15 -51 -19 -90 -4 -38 -13 -88 -21 -110 -7 -22 -14 -47 -14 -56 0 -9 -35 -51 -77 -93 -43 -42 -88 -85 -99 -97 -12 -12 -24 -34 -27 -48 -8 -38 -93 -148 -128 -167 -16 -8 -29 -19 -29 -24 0 -5 -9 -12 -20 -15 -11 -4 -51 -38 -89 -76 -74 -75 -146 -129 -174 -129 -80 -1 -327 -230 -327 -304 0 -9 -7 -27 -16 -41 -18 -28 -29 -124 -15 -144 8 -12 16 -13 49 -3 22 7 102 12 183 12 79 0 176 5 214 11 39 6 115 12 170 14 107 2 215 18 280 40 68 24 295 36 630 35 223 -2 331 1 355 10 19 6 94 14 165 16 78 3 144 11 165 20 56 22 155 34 295 34 110 0 144 4 220 26 117 34 200 41 250 20 49 -21 89 -20 122 2 23 15 64 18 293 24 146 4 285 12 310 17 69 15 220 13 276 -4 62 -19 144 -19 270 0 138 20 1062 30 1299 13 194 -13 148 -13 705 0 234 6 461 16 505 22 51 8 132 10 225 6 80 -3 233 -1 340 4 154 8 221 7 320 -5 129 -14 739 -25 1617 -27 442 -1 442 -1 490 -52 87 -93 99 -97 368 -126 50 -6 122 -17 160 -25 151 -33 1295 -42 1367 -11 21 9 45 16 55 16 45 0 222 123 223 154 0 6 12 20 27 30 24 17 31 18 72 6 25 -7 89 -20 141 -30 189 -35 266 -52 294 -67 17 -9 61 -15 110 -16 80 -2 81 -2 81 23 0 28 -53 52 -160 74 -33 7 -69 17 -80 23 -11 6 -47 13 -80 17 -33 4 -85 13 -115 21 -30 8 -90 15 -132 15 -88 0 -95 7 -50 56 134 148 162 375 62 502 -26 32 -26 96 -1 142 10 19 21 53 25 75 4 21 14 52 22 67 19 37 19 238 0 276 -7 15 -16 68 -20 117 -4 50 -13 108 -20 130 -8 22 -18 63 -24 90 -12 56 -47 162 -61 179 -5 6 -12 22 -16 36 -4 14 -22 43 -39 65 -17 22 -44 66 -61 98 -16 32 -47 76 -68 98 -63 65 -35 90 51 44 26 -14 52 -25 57 -25 6 0 28 -9 50 -20 22 -11 45 -20 52 -20 7 0 27 -9 45 -20 18 -11 41 -20 51 -20 10 0 44 -12 75 -26 31 -14 71 -32 89 -40 40 -18 123 -19 123 -1 0 21 -63 74 -97 81 -17 4 -69 29 -115 55 -46 27 -110 60 -143 75 -33 15 -78 36 -101 47 -23 10 -46 19 -51 19 -6 0 -16 6 -22 14 -7 8 -27 17 -46 20 -44 9 -95 51 -95 79 0 21 -38 107 -52 117 -3 3 -20 22 -36 43 -30 37 -123 117 -136 117 -4 0 -26 9 -49 19 -23 10 -51 21 -62 23 -16 3 -21 14 -26 58 -3 30 -9 62 -13 71 -5 11 3 25 28 45 20 16 63 55 97 86 33 31 74 61 90 67 27 9 31 8 39 -15 6 -14 10 -36 10 -50 0 -23 30 -76 57 -99 6 -5 41 -50 77 -100 91 -124 136 -175 154 -175 8 0 72 -56 142 -125 127 -125 127 -125 196 -125 84 0 129 21 209 98 90 87 125 148 125 217 0 58 -1 59 -52 107 -133 122 -220 196 -268 228 -29 19 -61 43 -72 53 -10 10 -67 56 -126 104 -59 47 -112 92 -118 99 -11 13 -74 39 -132 54 -41 10 -99 54 -107 81 -7 22 0 32 67 104 21 22 59 67 85 100 102 131 392 422 429 431 37 8 125 58 147 82 9 10 37 59 62 109 57 115 60 158 13 202 -55 51 -72 57 -105 33 -16 -11 -42 -24 -57 -28 -32 -8 -76 -48 -76 -69 0 -8 -8 -15 -18 -15 -26 0 -34 -11 -20 -27 8 -10 8 -17 1 -24 -8 -8 -13 -7 -17 0 -14 22 -25 10 -19 -20 6 -30 5 -30 -16 -18 -40 26 -91 -40 -91 -118 0 -47 18 -57 47 -28 18 19 38 15 38 -7 0 -9 -38 -56 -85 -105 -47 -49 -137 -145 -200 -213 -63 -68 -123 -131 -132 -141 -9 -10 -47 -57 -84 -106 -37 -48 -72 -92 -79 -98 -6 -5 -20 -22 -30 -38 -17 -27 -17 -28 9 -65 14 -21 26 -43 26 -48 0 -6 14 -26 30 -44 17 -19 28 -40 25 -48 -3 -7 -5 -18 -5 -23 0 -5 -7 -9 -15 -9 -8 0 -15 6 -15 14 0 7 -6 19 -14 25 -7 6 -16 25 -20 41 -3 18 -12 30 -21 30 -21 0 -75 -41 -75 -57 0 -7 -12 -16 -27 -19 -15 -4 -52 -34 -83 -66 -40 -42 -63 -58 -82 -58 -17 0 -34 -10 -48 -27 -16 -20 -33 -29 -63 -33 -45 -5 -64 -34 -30 -47 10 -4 21 -11 25 -17 11 -17 9 -66 -2 -66 -6 0 -31 -21 -55 -46 -52 -53 -97 -65 -131 -37 -30 25 -39 58 -19 75 9 7 42 38 73 69 31 30 69 63 84 72 15 10 35 32 44 50 25 49 183 205 241 239 52 29 52 29 17 64 -26 27 -40 34 -56 28 -12 -3 -138 -123 -280 -265 -142 -143 -262 -259 -266 -259 -4 0 -22 13 -39 29 -38 35 -35 61 13 113 44 47 101 98 109 98 11 0 65 58 65 69 0 6 8 11 19 11 10 0 21 9 24 20 3 12 14 20 26 20 15 0 21 6 21 21 0 18 2 19 15 9 13 -11 22 -9 50 6 19 10 35 22 35 26 0 4 9 16 21 27 22 20 19 41 -7 41 -8 0 -14 -9 -14 -20 0 -21 -24 -28 -35 -10 -9 14 -25 12 -25 -2 0 -7 -23 -26 -50 -41 -28 -16 -50 -32 -50 -38 0 -5 -7 -9 -15 -9 -7 0 -18 -6 -22 -14 -18 -32 -97 -55 -228 -66 -71 -6 -149 -15 -172 -20 -22 -6 -73 -14 -112 -20 -40 -5 -90 -19 -112 -31 -38 -19 -42 -19 -65 -4 -13 8 -24 19 -24 24 0 14 -62 70 -115 103 -27 18 -52 33 -53 34 -13 9 14 44 45 60 21 10 71 43 112 72 41 28 79 52 86 52 21 0 75 56 75 79 0 28 -33 93 -62 124 -24 24 -40 46 -61 83 -7 12 -30 48 -53 80 -22 33 -58 84 -78 114 -62 91 -61 90 -141 90 -52 0 -76 4 -85 15 -7 8 -18 15 -25 15 -17 0 -74 65 -91 104 -8 17 -30 58 -49 91 -43 76 -49 154 -12 190 47 46 109 126 122 159 13 31 13 36 -8 67 -29 43 -70 51 -88 17 -7 -13 -34 -48 -62 -78 -27 -30 -54 -65 -59 -77 -15 -30 -63 -50 -83 -33 -35 29 -19 77 48 143 34 34 81 75 105 91 23 16 42 30 42 32 0 41 -279 348 -327 360 -37 10 -119 -30 -211 -99 -48 -37 -104 -34 -156 9 -19 16 -45 37 -58 46 -127 96 -128 97 -128 158 0 44 5 63 25 90 14 19 25 39 25 45 0 7 9 20 20 30 20 18 26 60 12 81 -7 10 -75 44 -115 58 -11 3 -24 -2 -34 -14 -22 -26 -35 -25 -61 3 -16 17 -21 31 -17 53 6 34 -9 46 -150 116 -156 78 -181 88 -217 88 -44 0 -59 -17 -93 -105 -42 -107 -56 -135 -74 -144 -15 -8 -195 11 -229 24 -9 3 -54 11 -99 16 -141 16 -135 9 -131 149 3 137 -4 153 -79 165 -60 10 -67 -8 -58 -156 7 -119 7 -119 -26 -119 -19 0 -39 4 -45 8 -20 13 -30 103 -20 178 5 40 6 79 3 88 -6 16 -46 19 -107 9z m-4872 -375 c11 -46 24 -101 27 -123 4 -22 18 -60 31 -84 33 -60 22 -68 -62 -47 -62 16 -68 16 -85 0 -10 -9 -23 -13 -28 -9 -16 9 -13 71 4 85 7 6 17 33 21 58 4 26 12 58 19 72 7 14 15 45 19 69 13 88 28 82 54 -21z m-92 -518 c2 -215 0 -224 -59 -215 -65 11 -65 11 -69 208 -3 178 -3 178 22 183 14 3 30 7 35 9 6 2 24 3 40 2 30 -2 30 -2 31 -187z m5270 149 c17 -5 59 -13 95 -18 128 -19 243 -47 314 -77 17 -7 66 -27 110 -45 44 -18 94 -43 112 -56 17 -13 40 -23 51 -23 10 0 27 -9 37 -20 10 -11 31 -20 46 -20 15 0 32 -6 36 -13 4 -7 20 -20 35 -29 14 -10 29 -26 33 -37 3 -11 20 -25 38 -31 37 -12 229 -198 255 -247 6 -11 24 -23 39 -26 19 -4 36 -20 53 -48 14 -23 43 -63 64 -88 21 -25 45 -61 53 -79 7 -18 21 -36 29 -39 9 -3 25 -27 36 -52 11 -25 25 -53 33 -61 7 -8 16 -26 20 -40 4 -14 13 -32 20 -40 7 -8 16 -33 20 -55 4 -26 17 -49 36 -65 37 -31 62 -97 47 -124 -8 -15 -5 -23 18 -41 36 -29 28 -38 -35 -42 -54 -3 -97 25 -73 49 9 9 8 16 -5 30 -17 19 -21 62 -9 91 6 12 4 17 -7 17 -21 0 -47 -38 -47 -68 0 -18 -5 -23 -22 -20 -34 5 -45 66 -23 124 9 25 15 48 12 50 -11 11 -46 -17 -59 -46 -11 -27 -17 -30 -48 -28 -28 2 -36 8 -38 27 -3 21 -7 23 -48 18 -43 -4 -44 -4 -44 24 0 23 -7 31 -35 43 -19 8 -35 22 -35 30 0 9 -13 22 -30 31 -16 8 -36 28 -44 43 -8 15 -33 45 -56 67 -23 22 -51 53 -60 69 -10 16 -40 45 -66 65 -27 20 -51 47 -54 60 -3 13 -14 29 -25 35 -10 6 -51 37 -90 68 -111 91 -126 101 -205 148 -41 24 -81 50 -88 57 -7 7 -19 13 -26 13 -7 0 -34 11 -60 25 -26 14 -57 25 -68 25 -12 0 -29 7 -39 16 -10 9 -37 18 -61 21 -25 4 -48 14 -56 25 -10 14 -26 18 -66 18 -30 0 -73 7 -96 15 -48 17 -328 20 -415 5 -27 -5 -72 -13 -100 -18 -27 -5 -72 -16 -100 -25 -27 -9 -98 -27 -157 -41 -63 -15 -146 -44 -205 -72 -54 -26 -117 -55 -140 -65 -22 -11 -44 -26 -47 -34 -3 -8 -30 -21 -60 -30 -30 -9 -59 -22 -65 -29 -6 -7 -41 -26 -78 -41 -38 -15 -72 -31 -76 -36 -17 -14 6 -54 67 -116 33 -34 75 -77 93 -95 17 -18 46 -45 63 -60 32 -28 32 -28 28 -195 -6 -205 -25 -272 -60 -210 -8 14 -15 80 -18 184 -5 153 -10 186 -28 169 -4 -4 -9 -121 -12 -260 -5 -267 -9 -286 -53 -286 -20 0 -58 -34 -77 -70 -14 -26 -27 -25 -34 3 -3 12 -6 222 -7 465 -1 368 -3 442 -15 442 -7 0 -18 -9 -24 -20 -15 -28 -56 -26 -63 2 -4 12 -2 27 2 32 5 6 11 26 15 45 7 40 120 156 209 213 31 21 57 42 57 48 0 5 9 10 21 10 12 0 23 8 26 20 3 11 13 20 22 20 9 0 26 11 39 24 12 14 35 27 50 31 15 3 47 23 71 44 24 22 57 42 73 45 15 3 61 21 101 40 124 59 346 112 547 132 25 2 61 8 80 13 42 10 303 3 346 -10z m-4995 1 c39 -8 62 -7 82 1 37 15 48 0 45 -56 -3 -38 -4 -40 -33 -37 -16 2 -50 3 -73 3 -69 0 -122 48 -92 84 7 8 14 15 15 15 1 0 26 -5 56 -10z m-123 -23 c2 -10 -4 -35 -14 -55 -14 -31 -16 -54 -11 -158 7 -136 0 -157 -44 -134 -21 12 -22 16 -16 110 4 57 2 113 -4 136 -13 46 3 110 29 117 32 9 57 2 60 -16z m-1083 -21 c12 -61 0 -79 -49 -72 -22 4 -63 10 -91 13 -61 7 -75 17 -75 54 0 31 11 34 142 37 67 2 67 2 73 -32z m733 20 c6 -7 2 -303 -5 -321 -7 -20 -29 -19 -37 1 -3 9 -6 63 -6 120 0 156 22 146 -321 143 -154 -1 -282 1 -285 4 -3 3 9 19 28 36 33 30 33 30 327 25 162 -2 296 -6 299 -8z m756 -3 c7 -17 -42 -66 -77 -78 -24 -9 -47 12 -47 40 0 35 21 46 101 54 9 0 20 -6 23 -16z m150 11 c28 -11 18 -31 -28 -58 -51 -30 -69 -32 -86 -11 -19 23 11 63 52 68 18 2 36 5 40 5 3 1 13 -1 22 -4z m164 -11 c14 -28 3 -43 -45 -64 -58 -25 -63 -24 -63 6 0 14 6 25 13 25 7 0 23 11 35 25 26 29 48 32 60 8z m106 11 c24 -9 19 -41 -6 -48 -39 -10 -48 -7 -48 17 0 36 17 45 54 31z m236 -15 c8 0 25 2 36 6 18 5 23 1 32 -23 6 -17 8 -33 5 -36 -13 -13 -74 -6 -79 9 -8 19 -38 19 -54 1 -8 -11 -18 -12 -34 -6 -17 6 -28 4 -39 -7 -10 -11 -24 -13 -42 -9 -33 8 -30 18 15 50 30 22 43 25 90 21 30 -3 62 -5 70 -6z m186 -4 c4 -8 13 -15 20 -15 8 0 17 7 20 15 8 19 34 20 34 1 0 -37 -69 -82 -85 -56 -3 6 -17 10 -31 10 -29 0 -42 24 -24 45 16 19 59 19 66 0z m197 2 c8 8 20 12 26 9 17 -11 13 -26 -7 -26 -9 0 -22 -10 -27 -22 -11 -26 -74 -39 -76 -16 -5 49 16 74 46 54 19 -13 24 -13 38 1z m162 -11 c0 -42 -105 -82 -113 -43 -6 30 38 66 78 64 27 -2 35 -6 35 -21z m274 10 c6 -4 11 -13 10 -19 -3 -26 2 -37 15 -37 19 0 28 -14 20 -34 -8 -22 -31 -20 -44 4 -8 15 -19 19 -43 17 -28 -2 -32 1 -35 26 -4 32 -20 34 -53 9 -20 -15 -81 -42 -95 -42 -13 0 0 48 17 66 20 21 29 23 109 20 48 -2 92 -6 99 -10z m254 -5 c80 -10 91 -25 47 -62 -42 -36 -50 -36 -90 -3 -31 27 -31 27 -61 -5 -16 -18 -35 -31 -42 -29 -17 6 -22 58 -5 59 7 1 0 4 -17 8 -17 3 -31 14 -33 24 -3 15 5 17 70 16 40 0 99 -4 131 -8z m-3008 -140 c54 -7 59 -14 33 -50 -14 -20 -20 -22 -33 -11 -22 19 -29 6 -16 -31 12 -35 8 -43 -26 -53 -23 -7 -33 1 -63 52 -22 36 -40 42 -40 13 0 -32 -11 -51 -30 -51 -10 0 -21 7 -24 16 -10 25 -7 109 4 120 10 10 103 8 195 -5z m1040 -96 c0 -100 0 -100 -40 -103 -68 -5 -81 12 -77 109 2 45 5 86 8 91 3 5 29 8 57 6 52 -3 52 -3 52 -103z m1702 90 c17 -3 45 -18 61 -33 29 -27 29 -27 34 -197 3 -94 3 -193 1 -221 -5 -49 -6 -51 -52 -70 -88 -39 -181 -74 -195 -74 -7 0 -19 -6 -25 -14 -7 -8 -30 -17 -52 -21 -21 -4 -41 -11 -45 -16 -3 -5 -20 -16 -37 -25 -62 -29 -92 -48 -140 -86 -62 -48 -82 -48 -124 2 -19 22 -40 40 -46 40 -7 0 -29 9 -50 20 -20 11 -45 20 -54 20 -10 1 -42 9 -70 19 -51 17 -53 17 -80 -1 -16 -10 -42 -18 -60 -18 -17 0 -60 -9 -95 -20 -34 -11 -72 -20 -83 -20 -27 0 -133 -44 -152 -62 -43 -43 -38 -195 8 -240 29 -30 83 -41 59 -13 -10 12 -9 16 6 21 11 3 31 11 47 16 20 8 31 7 42 -2 18 -15 23 -4 27 60 3 43 4 44 45 55 59 14 74 31 40 44 -47 18 -33 50 38 91 63 36 63 36 75 5 12 -31 23 -980 13 -1055 -8 -53 -9 -55 -38 -55 -45 0 -57 35 -57 171 0 107 -2 115 -22 126 -11 6 -74 53 -138 105 -65 52 -123 93 -130 91 -10 -4 -13 -54 -13 -224 0 -120 -4 -229 -8 -241 -10 -27 -32 -30 -46 -6 -7 14 -14 15 -33 7 -50 -23 -92 -34 -101 -25 -11 11 -23 118 -33 287 -13 219 -15 214 86 214 96 0 100 7 103 156 2 119 2 119 -28 133 -46 22 -130 26 -173 8 -20 -9 -50 -18 -67 -22 -16 -4 -56 -22 -88 -42 -32 -19 -64 -32 -72 -30 -18 7 -13 426 6 473 6 16 11 66 11 112 -1 90 -2 88 93 138 37 20 58 106 62 254 4 163 4 163 111 170 100 6 1397 2 1439 -5z m1567 -44 c3 -5 -5 -20 -19 -35 -40 -43 -61 -30 -29 19 16 25 38 32 48 16z m-124 -147 c57 -6 62 -15 56 -102 -6 -92 -22 -121 -66 -114 -51 7 -84 59 -75 122 4 31 3 50 -3 50 -14 0 -23 27 -15 46 4 11 13 14 32 9 14 -3 46 -8 71 -11z m1494 -13 c9 -13 -19 -32 -37 -25 -9 3 -13 12 -10 20 6 15 39 19 47 5z m-72 -17 c4 -3 8 -14 8 -24 0 -10 9 -22 20 -25 28 -9 25 -25 -4 -25 -41 0 -76 18 -86 45 -5 14 -14 25 -20 25 -5 0 -10 5 -10 11 0 11 71 6 92 -7z m-113 -16 c5 -13 23 -38 40 -56 38 -41 38 -40 -1 -50 -31 -8 -33 -12 -30 -45 3 -41 1 -43 -28 -25 -16 10 -24 10 -40 0 -11 -6 -26 -12 -34 -12 -13 0 -46 -32 -126 -122 -64 -72 -124 -118 -154 -118 -7 0 -38 -25 -68 -56 -43 -44 -63 -58 -97 -64 -64 -12 -81 -4 -81 36 0 19 -3 34 -7 34 -22 1 -123 110 -123 134 0 21 -5 25 -32 28 -25 2 -33 8 -33 23 0 18 6 20 53 19 44 -2 52 1 52 16 0 26 26 43 56 37 18 -3 29 1 37 14 8 12 23 19 44 19 30 0 34 3 44 46 14 56 48 77 77 51 27 -25 104 -23 120 3 10 17 23 20 80 20 57 0 69 3 80 21 11 17 21 20 55 17 35 -2 42 0 45 17 8 40 57 48 71 13z m-4663 -32 c3 -8 1 -24 -5 -35 -10 -17 -15 -19 -41 -9 -32 11 -38 26 -18 46 17 17 57 15 64 -2z m8 -116 c32 -12 33 -27 4 -57 -22 -23 -78 -33 -78 -13 0 6 -11 16 -25 22 -26 12 -34 43 -12 51 21 9 85 7 111 -3z m-156 -57 c56 -61 61 -75 36 -95 -8 -7 -30 -28 -49 -45 -39 -38 -50 -40 -64 -15 -15 28 -23 156 -12 186 15 38 32 33 89 -31z m272 -56 c9 -40 10 -59 1 -74 -12 -24 -63 -41 -69 -23 -2 6 -15 24 -29 40 -39 47 -29 81 27 96 25 7 48 12 51 13 3 1 12 -23 19 -52z m3280 18 c7 -8 21 -15 31 -15 15 0 19 -7 19 -32 0 -18 1 -214 2 -436 3 -381 2 -402 -15 -402 -34 0 -70 47 -62 83 3 18 6 41 5 52 0 11 -4 176 -9 366 -5 191 -11 351 -15 357 -18 30 21 55 44 27z m-1232 -25 c69 -93 -58 -218 -137 -135 -44 47 -6 145 61 158 47 9 55 6 76 -23z m7708 -45 c6 -15 3 -26 -15 -55 -16 -26 -52 -109 -60 -137 -4 -16 -17 -33 -29 -39 -12 -6 -30 -18 -40 -27 -25 -23 -34 -21 -62 8 -22 23 -22 26 -7 43 37 39 80 89 110 131 64 88 91 108 103 76z m-9883 -35 c39 -46 42 -66 16 -115 -20 -38 -63 -76 -72 -64 -2 2 -22 27 -45 55 -23 29 -42 55 -42 58 0 14 86 95 102 96 9 0 28 -13 41 -30z m2432 -36 c20 -20 12 -175 -11 -211 -17 -27 -39 -30 -48 -7 -11 30 -7 209 6 222 16 16 34 15 53 -4z m2715 -64 c5 0 14 -10 21 -21 19 -36 -11 -44 -38 -11 -26 32 -29 46 -7 38 9 -3 20 -6 24 -6z m-5274 -73 c55 -54 55 -54 15 -82 -22 -15 -43 -36 -46 -46 -8 -24 -54 -37 -66 -18 -10 16 -12 159 -3 183 11 29 44 17 100 -37z m258 -10 c11 -61 1 -114 -25 -128 -30 -16 -33 -8 -34 92 -1 90 -1 90 24 87 22 -3 27 -10 35 -51z m2090 -20 c16 -12 17 -19 7 -66 -13 -61 -15 -1426 -2 -1505 5 -28 4 -64 -1 -83 -16 -59 39 -125 78 -92 19 15 31 4 15 -15 -10 -12 -8 -17 9 -26 26 -14 50 -7 50 14 0 28 -41 94 -62 99 -16 5 -19 11 -14 29 4 13 10 88 13 167 5 122 8 139 17 111 6 -17 16 -32 21 -31 18 1 17 52 0 72 -10 10 -15 25 -12 34 9 22 27 19 27 -5 0 -14 9 -21 38 -25 20 -4 42 -8 48 -10 6 -2 14 -36 17 -75 3 -40 12 -80 20 -89 17 -19 31 -141 17 -141 -21 0 -9 -37 16 -50 22 -12 27 -12 34 0 10 16 14 171 15 614 0 269 0 269 70 292 39 13 81 23 93 24 13 0 36 6 50 14 15 8 48 18 74 21 26 3 54 13 62 21 8 8 24 14 36 14 21 0 21 -2 17 -232 -3 -259 4 -225 -83 -373 -13 -22 -31 -55 -39 -72 -8 -18 -22 -33 -30 -33 -15 0 -35 -37 -35 -65 0 -17 26 -10 55 16 11 10 32 21 48 24 24 6 27 5 27 -19 0 -19 -9 -30 -32 -42 -18 -9 -36 -21 -39 -27 -4 -5 -19 -7 -35 -4 -40 7 -74 -18 -74 -55 0 -18 -11 -43 -25 -60 -14 -16 -25 -37 -25 -46 0 -9 -11 -36 -24 -59 -13 -23 -29 -58 -36 -79 -16 -49 -87 -179 -105 -194 -8 -7 -15 -25 -15 -40 0 -16 -16 -61 -35 -101 -19 -41 -35 -79 -35 -86 0 -6 -9 -18 -20 -26 -12 -8 -20 -18 -19 -23 4 -23 -3 -34 -21 -34 -24 0 -25 8 -4 31 14 16 8 25 -92 128 -59 61 -116 113 -127 117 -11 3 -44 31 -73 60 -29 30 -57 54 -63 54 -6 0 -19 17 -28 37 -10 21 -31 44 -46 51 -16 8 -31 21 -34 30 -3 10 -22 34 -41 54 -28 29 -33 42 -28 62 10 38 43 33 86 -14 20 -22 52 -46 72 -54 19 -8 40 -22 47 -30 7 -8 26 -18 42 -21 16 -4 29 -11 29 -16 0 -5 12 -14 26 -19 21 -8 25 -15 20 -35 -5 -18 -1 -27 13 -35 26 -13 31 -13 31 4 0 18 23 27 41 15 11 -8 10 -13 -8 -26 -33 -22 -28 -36 9 -31 18 3 46 0 63 -7 55 -23 73 4 33 50 -12 14 -28 25 -35 25 -13 0 -157 112 -178 138 -5 6 -24 20 -41 30 -49 27 -127 79 -145 97 -9 8 -19 15 -24 15 -5 0 -16 7 -26 16 -10 9 -31 23 -48 32 -57 32 -141 93 -150 111 -6 10 -11 189 -12 431 -1 473 -7 443 91 457 75 11 77 17 70 238 -3 99 -4 186 -2 192 5 17 58 42 106 50 23 3 57 14 76 25 19 10 47 18 61 18 15 0 33 7 40 16 26 32 66 41 93 21z m1901 -47 c3 -5 -8 -16 -24 -25 -39 -20 -39 -19 -33 10 4 26 44 36 57 15z m1149 -15 c17 -13 38 -30 46 -37 9 -8 52 -38 98 -68 45 -30 82 -58 82 -62 0 -4 6 -8 13 -8 8 0 22 -9 31 -19 10 -11 28 -22 42 -25 13 -4 24 -10 24 -15 0 -5 28 -26 63 -45 69 -40 153 -98 178 -121 9 -8 20 -15 24 -15 12 0 88 -52 98 -67 4 -7 13 -13 20 -13 14 0 87 -48 112 -73 9 -10 23 -17 31 -17 8 0 14 -4 14 -9 0 -5 14 -14 30 -20 17 -5 33 -17 36 -26 3 -8 11 -15 16 -15 15 0 108 -62 108 -72 0 -4 7 -8 15 -8 8 0 23 -9 32 -20 10 -11 23 -20 29 -20 6 0 23 -11 38 -25 15 -14 31 -25 36 -25 14 0 158 -100 192 -133 31 -32 31 -32 407 -31 207 1 395 4 417 8 28 5 44 4 49 -4 12 -20 -15 -66 -56 -96 -58 -43 -59 -52 -18 -299 5 -27 13 -167 18 -310 6 -143 15 -287 21 -320 5 -33 15 -184 20 -335 5 -151 14 -293 20 -315 5 -22 15 -139 20 -260 5 -121 14 -263 20 -315 5 -52 12 -165 15 -250 7 -201 23 -318 45 -350 17 -23 24 -24 116 -26 120 -2 271 -20 379 -44 44 -10 136 -21 205 -25 100 -6 129 -11 149 -26 20 -16 41 -19 137 -19 109 0 140 -8 117 -31 -16 -16 -600 -14 -619 2 -7 6 -43 12 -81 14 -37 1 -135 6 -218 10 -82 3 -180 13 -217 21 -37 8 -89 14 -115 14 -45 0 -73 12 -73 31 0 4 29 7 65 6 103 -3 110 30 10 49 -22 4 -48 13 -59 20 -14 9 -24 10 -42 2 -17 -8 -27 -8 -38 1 -8 6 -36 11 -62 11 -67 -1 -250 17 -299 31 -23 6 -138 11 -258 12 -217 2 -217 2 -218 27 -4 202 -19 481 -27 501 -6 15 -13 138 -17 274 -3 136 -8 252 -11 256 -3 5 -1 32 4 61 13 69 5 116 -20 124 -10 3 -17 11 -15 17 6 19 35 20 53 3 8 -9 22 -16 30 -16 8 0 14 -9 14 -20 0 -12 7 -31 15 -43 8 -13 19 -54 25 -92 6 -39 15 -99 21 -135 5 -36 12 -168 15 -295 3 -126 9 -250 15 -275 5 -25 11 -75 13 -112 3 -45 9 -73 20 -83 9 -9 16 -25 16 -35 0 -11 11 -27 25 -36 14 -9 25 -23 25 -30 0 -20 13 -17 28 6 13 21 38 26 62 10 12 -7 12 -12 2 -22 -22 -22 -13 -24 111 -24 67 0 198 -6 291 -12 129 -9 173 -9 184 0 10 9 18 9 34 -1 15 -9 23 -9 34 0 22 18 17 39 -11 39 -14 0 -36 6 -48 14 -14 9 -67 16 -152 20 -71 3 -146 11 -165 17 -19 7 -105 15 -191 18 -110 4 -161 10 -172 20 -15 11 -17 37 -17 173 0 104 -5 180 -14 217 -8 33 -17 142 -21 266 -4 126 -12 236 -21 275 -11 45 -16 132 -17 283 -2 210 -1 219 18 235 12 10 24 25 28 35 7 19 37 24 37 6 0 -7 12 -9 34 -5 30 6 35 4 46 -24 10 -24 15 -28 26 -19 20 17 17 47 -5 54 -20 6 -38 56 -26 75 3 5 17 10 30 10 18 0 28 11 45 46 12 25 32 52 45 60 12 8 30 35 41 59 15 38 22 45 43 43 18 -2 26 3 31 22 8 27 59 90 74 90 5 0 15 -8 22 -17 17 -24 32 -8 16 17 -18 30 -15 61 8 67 11 3 20 11 20 19 0 7 9 18 20 24 11 6 20 18 20 26 0 8 16 22 35 30 19 8 35 20 35 28 0 7 14 30 30 51 33 41 35 68 8 73 -11 2 -23 -8 -33 -27 -8 -17 -25 -36 -38 -42 -12 -7 -39 -27 -60 -45 -20 -19 -41 -34 -47 -34 -5 0 -16 -15 -24 -33 -7 -18 -25 -41 -40 -50 -14 -10 -26 -24 -26 -32 0 -8 -14 -27 -32 -42 -41 -36 -100 -97 -163 -170 -27 -31 -60 -67 -72 -79 -13 -12 -23 -26 -23 -32 0 -6 -15 -23 -32 -38 -18 -15 -40 -39 -49 -53 -17 -28 -58 -71 -105 -111 -16 -14 -60 -61 -99 -105 -38 -43 -98 -107 -132 -141 -35 -35 -63 -64 -63 -66 0 -2 -50 -55 -111 -118 -61 -63 -118 -126 -127 -140 -9 -14 -48 -54 -86 -90 -127 -120 -276 -275 -276 -286 0 -4 -11 -17 -24 -29 -13 -12 -25 -28 -28 -35 -4 -14 -78 49 -78 66 0 10 -93 114 -204 229 -54 55 -111 119 -128 143 -17 23 -37 42 -45 42 -7 0 -13 4 -13 8 0 10 -84 103 -220 246 -137 144 -151 159 -192 207 -21 24 -53 62 -71 84 -19 22 -50 66 -68 98 -19 32 -44 74 -56 95 -12 20 -29 51 -37 67 -9 17 -20 37 -26 45 -5 8 -15 26 -21 40 -5 14 -21 43 -34 65 -14 22 -34 58 -45 80 -11 22 -29 54 -40 70 -22 33 -40 72 -40 84 0 5 -6 14 -14 20 -8 7 -18 25 -21 41 -3 16 -13 34 -21 41 -8 6 -14 21 -14 34 0 12 -9 30 -20 40 -13 12 -17 25 -14 44 5 21 -3 36 -43 77 -26 28 -71 76 -98 106 -60 66 -77 65 -119 -7 -27 -45 -27 -52 -7 -85 6 -8 24 -44 41 -80 17 -36 50 -101 74 -145 24 -44 57 -109 75 -145 117 -234 150 -298 161 -305 6 -4 10 -14 10 -24 0 -10 9 -26 19 -35 10 -9 22 -30 25 -47 3 -16 9 -42 12 -58 3 -17 15 -38 25 -47 10 -9 19 -29 19 -44 0 -15 7 -33 15 -40 8 -6 29 -42 46 -78 18 -37 38 -70 45 -74 6 -4 15 -24 18 -43 4 -19 11 -35 15 -35 4 0 15 -17 25 -37 24 -54 47 -96 63 -111 7 -7 13 -24 13 -36 0 -13 7 -29 15 -36 44 -36 -37 -36 -116 0 -24 11 -55 20 -68 20 -13 0 -39 10 -58 21 -30 18 -44 21 -98 16 -57 -6 -65 -4 -78 16 -14 21 -14 21 -58 2 -26 -12 -62 -19 -91 -18 -46 1 -50 -1 -93 -49 -51 -57 -54 -65 -22 -73 27 -7 403 -11 586 -7 135 4 135 4 163 -30 15 -18 28 -42 28 -52 0 -11 10 -36 23 -55 39 -62 47 -75 58 -101 6 -14 15 -32 20 -40 5 -8 14 -26 20 -40 6 -14 15 -32 20 -40 6 -8 17 -32 26 -52 9 -21 19 -38 24 -38 4 0 11 -14 14 -32 4 -18 15 -44 24 -58 24 -36 38 -61 56 -95 9 -16 27 -48 40 -70 14 -22 31 -53 39 -70 8 -16 24 -38 35 -47 23 -20 28 -64 9 -69 -7 -2 -200 -2 -428 1 -415 5 -415 5 -418 35 -2 16 -12 40 -23 53 -10 14 -19 37 -19 52 0 15 -7 33 -15 40 -8 7 -15 18 -15 25 0 6 -11 32 -23 56 -13 24 -27 56 -31 72 -3 15 -11 27 -16 27 -5 0 -12 16 -16 35 -3 19 -12 39 -20 46 -7 6 -16 26 -20 45 -3 18 -12 38 -20 45 -8 7 -14 31 -14 59 0 45 -1 48 -32 54 -35 7 -92 -1 -123 -17 -11 -6 -51 -16 -90 -23 -38 -7 -88 -19 -110 -28 -22 -8 -64 -15 -93 -16 -29 0 -65 -6 -81 -14 -15 -8 -56 -18 -92 -22 -35 -4 -88 -15 -118 -25 -30 -11 -76 -19 -103 -19 -27 0 -62 -7 -78 -15 -15 -8 -55 -17 -87 -21 -32 -4 -101 -17 -153 -30 -52 -13 -110 -24 -127 -24 -26 0 -33 -4 -33 -20 0 -22 10 -26 27 -9 21 21 43 2 43 -35 0 -19 -5 -38 -10 -41 -6 -3 -15 -26 -21 -50 -6 -25 -17 -50 -25 -56 -8 -6 -14 -19 -14 -29 0 -9 -8 -28 -19 -41 -10 -13 -21 -40 -25 -60 -10 -54 -28 -64 -115 -65 -134 -1 -545 -23 -569 -30 -50 -14 -69 41 -27 78 14 12 25 31 25 43 0 12 9 30 20 40 11 10 20 26 20 35 0 10 9 29 20 43 11 14 20 36 20 50 0 13 9 34 20 47 11 13 20 30 20 39 0 9 9 30 20 46 11 17 20 37 20 46 0 9 9 28 20 42 11 14 20 34 20 45 0 10 9 31 20 45 11 14 20 34 20 45 0 10 9 29 20 42 11 13 20 33 20 45 0 12 9 32 20 45 11 13 20 33 20 45 0 12 9 32 20 45 11 13 20 33 20 45 0 12 9 32 20 45 11 13 20 34 20 47 0 13 9 31 20 40 11 10 20 29 20 44 0 14 9 34 20 44 11 10 20 30 20 45 0 15 9 35 20 45 11 10 20 29 20 42 0 14 9 36 20 50 11 14 20 38 20 53 0 15 9 35 20 45 11 10 20 30 20 44 0 14 9 40 20 56 11 17 20 37 20 46 0 9 6 22 14 28 8 7 18 27 22 44 3 18 15 43 25 56 11 13 19 33 19 45 0 11 7 30 15 40 8 11 15 27 15 36 0 10 11 38 25 64 14 26 25 51 25 56 0 8 29 73 116 255 72 152 84 189 95 285 6 52 14 99 19 104 5 5 188 8 407 7 398 -2 398 -2 448 45 28 25 66 56 85 69 19 12 48 34 63 49 15 14 31 26 34 26 3 0 19 11 37 25 17 14 40 32 51 40 75 56 251 198 253 206 2 5 9 9 16 9 7 0 22 11 34 25 12 14 28 25 35 25 7 0 20 8 29 18 20 22 95 84 116 96 9 5 62 45 117 87 55 43 111 86 123 96 13 10 35 27 47 38 13 11 34 28 47 38 131 101 198 161 198 178 0 16 22 9 54 -16z m1854 -7 c-2 -13 -10 -23 -18 -23 -8 0 -16 10 -18 23 -3 17 2 22 18 22 16 0 21 -5 18 -22z m-7142 -10 c74 -86 78 -112 28 -168 -47 -52 -76 -53 -108 -2 -13 20 -31 43 -40 51 -25 21 -20 34 32 89 54 58 61 60 88 30z m1757 -15 c14 -9 7 -35 -8 -29 -10 3 -18 -1 -22 -11 -4 -9 -1 -19 5 -21 18 -6 15 -49 -4 -56 -11 -4 -18 1 -21 14 -4 14 -14 20 -34 20 -19 0 -29 5 -29 15 0 8 -5 15 -10 15 -10 0 -4 42 7 63 5 8 99 0 116 -10z m-239 -68 c-1 -22 -2 -260 -3 -530 -3 -490 -3 -490 -33 -524 -30 -33 -30 -33 -116 -27 -76 6 -809 8 -932 3 -58 -3 -62 16 -17 74 33 44 33 44 539 49 279 3 510 9 515 13 4 5 -2 16 -13 25 -12 9 -24 28 -27 42 -3 14 -7 220 -9 458 -2 422 -2 434 17 448 11 8 34 14 50 12 28 -3 30 -6 29 -43z m-1604 -168 c0 -16 -92 -98 -104 -94 -12 4 -21 180 -11 206 5 12 19 2 61 -42 30 -32 54 -64 54 -70z m6020 105 c0 -13 -39 -46 -46 -39 -12 12 8 47 27 47 10 0 19 -4 19 -8z m-3388 -59 c-1 -20 5 -44 12 -52 7 -9 16 -35 20 -58 5 -35 3 -44 -13 -52 -25 -14 -32 -44 -15 -77 20 -39 17 -61 -11 -80 -15 -9 -25 -26 -25 -39 0 -14 -7 -25 -20 -28 -25 -6 -27 -45 -3 -62 11 -8 14 -18 9 -31 -7 -18 -9 -18 -23 4 -9 12 -21 22 -27 22 -6 0 -22 9 -35 19 -24 18 -24 18 2 42 26 21 38 47 17 34 -5 -3 -18 3 -30 15 -22 22 -27 74 -9 113 8 18 7 35 -5 71 -22 64 -21 76 9 76 17 0 29 -8 37 -25 13 -30 52 -34 80 -8 21 19 22 37 6 96 -13 49 -5 88 14 69 6 -6 11 -28 10 -49z m-1252 17 c0 -24 -20 -37 -30 -19 -10 16 7 52 21 44 5 -4 9 -15 9 -25z m-1146 -11 c15 -74 -4 -118 -61 -148 -20 -10 -22 -18 -20 -66 2 -47 -1 -57 -27 -84 -17 -17 -37 -31 -45 -31 -23 0 -131 104 -131 126 0 43 120 111 165 94 29 -11 30 -10 39 64 7 57 20 76 51 76 17 0 24 -7 29 -31z m1090 3 c10 -32 -9 -77 -33 -80 -35 -5 -44 10 -27 44 8 16 17 37 20 46 6 21 33 14 40 -10z m3419 -27 c-3 -13 -53 -20 -53 -7 0 15 13 23 35 20 11 -2 19 -7 18 -13z m-4474 -109 c18 -22 -6 -66 -36 -66 -33 0 -38 23 -11 53 27 31 31 32 47 13z m4269 -80 c3 -13 -1 -17 -14 -14 -11 2 -20 11 -22 22 -3 13 1 17 14 14 11 -2 20 -11 22 -22z m-3234 1 c21 -15 14 -57 -8 -57 -21 0 -47 35 -40 54 7 19 24 21 48 3z m5180 -58 c-3 -5 -12 -9 -19 -9 -8 0 -19 -9 -25 -20 -6 -11 -17 -20 -25 -20 -22 0 -18 31 5 37 11 3 20 13 20 22 0 10 3 21 7 24 9 9 44 -23 37 -34z m-6498 -64 c24 -23 44 -46 44 -50 0 -16 -114 -116 -129 -113 -13 3 -16 21 -19 107 -1 58 0 111 2 118 7 17 38 -2 102 -62z m269 18 c11 -25 12 -40 5 -47 -5 -5 -10 -32 -10 -59 0 -46 -13 -87 -28 -87 -4 0 -33 29 -65 65 -57 64 -58 65 -35 74 13 5 36 27 51 50 35 53 61 54 82 4z m6314 -2 c20 -16 31 -33 27 -39 -11 -18 -33 -14 -50 9 -14 20 -16 20 -31 5 -27 -26 -37 -8 -13 25 26 35 25 35 67 0z m-5224 -51 c-8 -45 5 -70 37 -70 14 0 19 -6 16 -22 -3 -20 -9 -23 -48 -24 -66 -1 -80 4 -80 32 0 13 4 24 8 24 9 0 26 29 42 73 15 43 33 34 25 -13z m2184 11 c27 -21 23 -58 -5 -47 -9 3 -22 6 -30 6 -8 0 -14 8 -14 18 0 10 -5 23 -12 30 -20 20 34 14 61 -7z m3143 -36 c6 -14 9 -28 5 -31 -15 -16 -83 28 -72 47 13 19 55 9 67 -16z m94 -56 c9 -16 -21 -43 -40 -36 -27 10 -20 47 8 47 14 0 28 -5 32 -11z m-6647 -41 c49 -51 49 -55 11 -103 -23 -30 -27 -41 -19 -56 17 -32 63 -16 80 27 6 16 15 24 27 22 15 -3 17 -17 17 -123 0 -112 -1 -120 -20 -120 -13 0 -21 9 -26 30 -9 40 -38 95 -50 95 -5 0 -14 11 -18 23 -5 13 -25 32 -45 41 -42 20 -126 94 -126 111 0 6 20 26 45 45 25 19 45 37 45 42 0 22 43 3 79 -34z m2391 -12 c0 -16 7 -27 20 -31 22 -7 25 -22 10 -45 -7 -12 -12 -8 -21 18 -7 20 -18 32 -29 32 -23 0 -34 16 -26 35 10 26 46 18 46 -9z m4335 -1 c0 -31 -49 -28 -53 3 -3 20 0 23 25 20 20 -2 28 -8 28 -23z m-6864 -147 c55 -52 65 -78 29 -78 -10 0 -30 -15 -44 -32 -25 -33 -26 -33 -53 -16 -24 14 -29 25 -35 80 -12 117 15 129 103 46z m429 24 c66 -33 77 -64 37 -112 -14 -16 -42 -64 -62 -107 -20 -43 -48 -92 -61 -110 -13 -17 -23 -42 -22 -55 4 -32 -24 -30 -33 2 -5 22 -7 23 -14 7 -4 -10 -5 -31 -2 -46 8 -38 -12 -55 -52 -46 -38 8 -46 21 -33 48 5 12 15 35 21 51 10 24 16 28 41 24 27 -4 30 -2 36 31 4 20 11 44 16 53 4 10 11 71 14 135 3 65 7 126 10 136 8 24 40 21 104 -11z m6668 -34 c21 -21 13 -25 -70 -31 -84 -6 -118 2 -118 28 0 19 169 22 188 3z m2362 -33 c0 -14 -6 -28 -14 -31 -8 -3 -27 -23 -42 -45 -28 -40 -28 -40 10 -74 128 -113 273 -268 289 -308 13 -30 12 -33 -11 -44 -45 -24 -72 -7 -86 52 -4 16 -14 37 -22 45 -140 148 -201 210 -207 210 -4 0 -12 -10 -16 -22 -9 -22 -9 -22 -17 -4 -5 13 -3 21 4 24 22 7 12 28 -28 62 -22 18 -40 39 -40 46 0 13 95 97 120 107 38 14 60 7 60 -18z m-9356 -75 c24 -9 26 -14 26 -73 0 -51 -4 -68 -20 -82 -14 -12 -17 -25 -13 -46 4 -23 2 -29 -11 -29 -9 0 -19 7 -23 15 -3 9 -25 36 -49 60 -24 24 -44 48 -44 54 0 8 99 111 107 111 1 0 13 -4 27 -10z m8236 -55 c0 -9 -13 -22 -30 -29 -28 -11 -80 -91 -80 -123 0 -16 -59 -59 -92 -67 -15 -3 -32 -15 -38 -26 -6 -11 -17 -20 -25 -20 -8 0 -18 -6 -22 -13 -12 -20 -55 -47 -75 -47 -41 0 -47 23 -42 157 3 70 7 130 9 133 2 4 70 7 151 8 134 1 148 3 166 21 23 25 78 29 78 6z m-8398 -97 c12 -7 33 -26 47 -42 42 -48 85 -86 99 -86 22 0 13 -47 -13 -64 -31 -20 -33 -46 -4 -46 12 0 23 8 26 20 3 13 14 20 29 20 23 0 24 -3 24 -73 0 -43 -5 -78 -12 -85 -14 -14 -78 -16 -78 -2 0 6 -10 20 -21 31 -18 18 -20 25 -10 40 18 29 13 39 -18 39 -21 0 -32 6 -36 20 -5 15 -15 20 -41 20 -19 0 -34 3 -34 8 -9 158 -6 212 11 212 5 0 19 -6 31 -12z m7895 -53 c7 -19 5 -20 -24 -29 -20 -6 -23 -4 -23 18 0 30 36 38 47 11z m-6726 -79 c386 1 386 1 407 -31 12 -17 22 -37 22 -44 0 -7 11 -26 25 -43 14 -16 25 -37 25 -47 0 -9 11 -32 25 -51 14 -19 25 -41 25 -50 0 -15 50 -119 105 -218 13 -23 29 -59 36 -80 6 -20 17 -44 24 -52 10 -13 49 -85 93 -175 9 -16 24 -41 34 -54 10 -13 18 -36 18 -51 0 -15 6 -33 14 -39 7 -6 26 -39 41 -74 16 -34 36 -73 46 -87 9 -14 27 -56 40 -95 22 -71 52 -115 76 -115 28 0 30 -105 2 -123 -12 -7 -28 -5 -60 10 -81 37 -161 45 -404 43 -126 -1 -241 -3 -255 -3 -21 -2 -30 7 -55 59 -16 34 -35 68 -42 75 -6 8 -15 28 -19 44 -4 17 -15 41 -26 54 -10 13 -18 31 -18 39 0 9 -35 88 -79 176 -43 89 -88 186 -101 216 -12 30 -30 73 -40 95 -33 73 -49 119 -56 160 -8 47 -41 95 -65 95 -12 0 -19 -12 -24 -47 -4 -27 -10 -52 -15 -58 -4 -5 -11 -25 -15 -43 -4 -18 -13 -45 -21 -60 -8 -15 -14 -34 -14 -42 0 -8 -9 -28 -20 -45 -11 -16 -20 -37 -20 -45 0 -8 -18 -52 -40 -98 -22 -46 -40 -89 -40 -96 0 -7 -9 -25 -20 -39 -11 -14 -20 -35 -20 -47 0 -11 -9 -38 -20 -58 -19 -36 -30 -61 -85 -192 -15 -36 -35 -82 -46 -102 -22 -44 -26 -128 -6 -128 8 0 27 6 43 14 16 8 107 22 203 31 162 16 192 16 430 1 660 -41 843 -49 956 -38 74 6 80 9 77 28 -3 24 18 46 34 36 6 -4 13 -29 16 -55 6 -48 5 -49 -36 -74 -37 -24 -53 -27 -186 -33 -80 -4 -158 -13 -174 -19 -16 -7 -66 -14 -110 -17 -45 -3 -107 -14 -139 -25 -31 -10 -70 -19 -85 -19 -16 0 -55 -9 -87 -20 -32 -11 -82 -20 -112 -20 -30 0 -67 -7 -83 -15 -15 -8 -55 -18 -87 -21 -32 -4 -73 -13 -91 -20 -19 -8 -70 -17 -115 -20 -45 -4 -89 -12 -97 -19 -8 -7 -46 -15 -84 -19 -38 -4 -80 -13 -95 -20 -14 -8 -51 -17 -81 -20 -30 -4 -64 -11 -75 -16 -11 -4 -56 -15 -99 -24 -44 -9 -85 -21 -90 -25 -6 -5 -31 -12 -56 -16 -25 -4 -56 -14 -70 -23 -14 -10 -41 -22 -60 -27 -40 -12 -60 -43 -60 -95 0 -19 -9 -48 -20 -65 -11 -16 -20 -45 -20 -62 0 -23 -7 -37 -24 -48 -20 -14 -23 -23 -21 -63 4 -62 19 -64 52 -6 16 26 38 58 51 72 12 14 22 31 22 39 0 18 32 81 68 133 31 46 108 78 251 106 41 8 80 19 86 24 6 5 40 12 76 16 35 3 67 7 70 10 12 7 172 34 204 34 17 0 37 6 43 12 8 8 54 14 125 17 70 2 119 8 132 17 15 10 31 11 63 3 67 -15 130 9 66 25 -18 5 -24 10 -17 17 13 13 138 -8 153 -26 8 -10 8 -19 0 -34 -9 -17 -7 -23 10 -33 22 -14 72 -95 85 -138 4 -14 20 -44 35 -66 15 -23 31 -55 34 -70 7 -31 49 -84 66 -84 26 0 7 70 -45 164 -30 55 -55 105 -55 111 0 7 -12 26 -27 43 -100 110 -92 140 43 169 55 12 124 25 154 28 30 3 60 11 67 16 6 6 42 15 80 20 37 5 86 16 108 25 25 9 64 14 100 12 57 -3 60 -4 57 -28 -1 -13 -11 -34 -22 -45 -11 -12 -20 -29 -20 -38 0 -9 -5 -19 -11 -23 -6 -4 -24 -34 -40 -68 -16 -33 -33 -68 -39 -76 -17 -27 -118 -255 -125 -282 -4 -15 -13 -29 -21 -32 -8 -3 -14 -19 -14 -35 0 -39 -20 -58 -72 -66 -24 -4 -56 -18 -71 -31 -30 -25 -45 -28 -97 -18 -27 6 -36 16 -56 58 -13 28 -24 59 -24 68 0 12 -11 19 -36 24 -27 5 -34 10 -29 23 16 39 16 79 1 115 -9 21 -13 43 -10 48 4 6 10 26 14 45 8 34 7 35 -35 54 -44 19 -44 19 -105 -1 -45 -15 -74 -19 -109 -14 -35 4 -55 2 -72 -9 -23 -14 -213 -35 -268 -29 -13 2 -33 -6 -45 -16 -21 -20 -55 -24 -257 -36 -31 -1 -61 -6 -67 -10 -6 -3 -40 -7 -76 -7 -50 -1 -72 -6 -92 -22 -26 -20 -63 -90 -74 -137 -3 -16 -13 -26 -28 -28 -12 -2 -22 -9 -22 -16 0 -19 -40 -108 -56 -124 -8 -7 -14 -22 -14 -33 0 -11 -11 -31 -25 -45 -23 -23 -31 -25 -122 -24 -120 1 -230 -4 -303 -15 -66 -9 -99 -12 -265 -24 -163 -12 -213 -20 -245 -36 -14 -7 -85 -16 -160 -20 -74 -4 -146 -12 -160 -18 -14 -5 -69 -13 -122 -18 -53 -4 -112 -14 -130 -23 -19 -8 -94 -19 -178 -26 -80 -6 -185 -20 -235 -30 -49 -11 -124 -27 -166 -35 -42 -9 -113 -17 -157 -17 -71 0 -84 -2 -92 -19 -12 -22 -19 -23 -54 -9 -37 14 -24 32 42 62 44 21 67 25 100 21 42 -6 42 -6 42 31 0 39 13 46 40 21 15 -14 20 -13 44 6 18 14 50 25 89 29 34 5 80 15 102 24 22 8 56 15 76 16 20 0 56 7 79 15 23 8 54 15 68 15 14 0 67 11 116 24 160 43 230 58 276 60 25 1 52 6 60 11 8 5 27 8 43 7 34 -3 213 51 244 73 25 17 39 61 48 148 5 47 10 57 25 57 22 0 40 28 40 60 0 12 13 34 28 48 37 35 52 64 52 101 0 16 10 42 24 58 13 15 42 64 64 108 23 44 55 93 71 109 17 17 31 37 31 45 0 9 7 27 14 41 8 14 34 66 59 115 25 50 57 105 71 122 14 17 26 40 26 52 0 11 11 28 25 37 15 10 29 33 36 57 6 23 28 77 50 120 21 44 39 86 39 94 0 7 11 25 24 38 14 13 27 33 31 44 3 10 12 22 19 24 8 3 17 21 21 39 4 18 14 44 23 58 42 62 104 172 141 245 21 44 48 89 60 99 13 12 22 37 27 73 6 51 8 54 29 49 20 -5 25 -1 36 32 7 20 24 53 39 72 16 19 33 53 40 75 7 22 30 68 52 101 39 61 39 61 151 55 62 -3 286 -6 498 -5z m6704 0 c10 -7 24 -37 32 -66 7 -29 24 -66 38 -82 14 -16 25 -37 25 -45 0 -13 8 -15 45 -10 35 5 47 3 51 -8 8 -20 54 -20 54 0 0 17 16 20 25 5 3 -6 -1 -13 -9 -16 -28 -11 -18 -51 24 -96 22 -24 40 -46 40 -50 0 -4 19 -12 43 -19 56 -15 67 -25 67 -65 0 -28 5 -36 25 -44 15 -6 25 -17 25 -29 0 -12 11 -23 31 -30 41 -14 39 -14 39 9 0 12 -12 26 -30 35 -34 18 -42 50 -10 41 11 -3 29 -9 41 -12 11 -3 27 -21 35 -39 11 -27 20 -34 46 -37 40 -4 46 -21 13 -36 -14 -6 -25 -16 -25 -22 0 -16 40 -12 46 5 7 18 44 20 45 3 1 -7 2 -22 3 -33 2 -29 40 -27 44 3 3 21 22 32 22 12 0 -16 62 -80 94 -97 17 -9 46 -29 64 -44 18 -16 41 -29 52 -29 10 0 23 -6 27 -14 16 -29 83 -67 101 -57 9 4 23 6 30 4 7 -3 29 3 50 13 50 23 87 22 116 -5 13 -12 33 -21 44 -19 11 2 29 -5 41 -16 19 -18 21 -18 27 -1 4 10 2 33 -5 51 -13 36 0 83 26 91 18 6 28 -46 16 -78 -8 -19 -7 -31 0 -38 6 -6 10 -27 9 -45 -2 -30 3 -38 35 -60 21 -15 41 -26 45 -26 9 0 84 -52 120 -82 25 -22 27 -30 33 -131 5 -87 3 -108 -8 -113 -18 -7 -123 47 -162 83 -17 15 -42 36 -55 45 -14 10 -44 31 -68 48 -23 16 -53 32 -66 36 -14 3 -27 12 -30 20 -3 8 -12 14 -19 14 -8 0 -24 9 -37 20 -13 11 -32 20 -42 20 -10 0 -21 7 -24 15 -9 22 -92 61 -146 68 -51 7 -118 37 -191 87 -25 16 -52 30 -60 30 -9 0 -29 11 -45 25 -17 14 -44 28 -62 31 -17 4 -34 13 -37 20 -3 8 -13 14 -23 14 -9 0 -31 14 -48 30 -18 17 -40 30 -51 30 -10 0 -24 7 -31 15 -7 8 -24 15 -38 15 -28 0 -98 43 -121 73 -11 16 -22 18 -72 12 -44 -5 -64 -3 -76 6 -9 8 -27 14 -41 14 -21 0 -28 8 -40 45 -15 45 -15 45 -23 16 -9 -33 -11 -281 -2 -343 4 -37 9 -43 29 -43 29 0 29 -5 4 -58 -24 -49 -25 -62 -5 -62 17 0 20 -16 5 -25 -18 -11 -11 -47 10 -52 10 -3 22 -14 25 -24 4 -12 19 -22 36 -26 32 -6 40 -23 11 -23 -10 0 -27 -6 -37 -14 -18 -13 -17 -14 13 -30 25 -13 32 -23 32 -46 0 -27 3 -30 31 -30 26 0 30 -3 27 -22 -2 -16 -10 -23 -28 -25 -14 0 -29 -1 -33 -2 -5 -1 1 -13 12 -28 21 -26 21 -26 0 -49 -20 -21 -20 -23 -4 -54 10 -20 15 -44 11 -61 -3 -17 0 -32 9 -39 19 -16 19 -29 0 -50 -23 -25 -34 -294 -13 -318 12 -12 14 -30 11 -62 -3 -25 -7 -89 -10 -142 -5 -97 -5 -97 21 -104 31 -7 45 -47 27 -75 -16 -26 -14 -37 9 -44 13 -4 25 -24 36 -60 10 -36 24 -61 42 -74 39 -29 19 -41 -52 -31 -32 5 -64 6 -72 3 -8 -3 -21 0 -29 7 -9 8 -28 10 -49 6 -45 -9 -66 19 -66 89 0 27 -5 68 -10 91 -5 22 -11 137 -14 255 -2 118 -9 226 -15 241 -12 33 -19 107 -26 278 -3 74 -9 150 -14 168 -6 20 -6 66 -1 118 6 54 5 106 -1 138 -10 55 -4 127 14 165 9 19 9 25 -4 35 -38 28 -45 68 -52 306 -1 19 0 67 2 105 2 39 -2 92 -10 118 -9 36 -10 56 -2 77 8 20 8 54 2 107 -24 194 -16 237 36 199z m349 -85 c3 -5 18 -12 33 -16 14 -3 38 -15 51 -26 14 -10 35 -19 47 -19 12 0 30 -9 40 -20 10 -11 28 -20 40 -20 12 0 33 -8 46 -18 13 -11 38 -22 54 -26 17 -4 37 -13 45 -20 8 -8 29 -17 45 -20 17 -4 37 -13 45 -21 8 -7 31 -15 52 -19 20 -4 38 -13 41 -20 3 -7 25 -16 48 -20 24 -4 49 -12 56 -18 8 -6 44 -17 81 -24 176 -34 165 -19 166 -220 1 -166 0 -179 -17 -182 -11 -2 -28 6 -38 17 -11 12 -23 21 -27 21 -4 0 -26 17 -48 38 -47 42 -100 82 -110 82 -5 0 -43 28 -84 63 -8 7 -35 26 -59 42 -25 17 -56 40 -69 52 -13 12 -44 37 -69 55 -24 18 -77 58 -116 88 -40 30 -92 68 -117 85 -25 16 -47 32 -50 35 -16 16 -88 60 -98 60 -13 0 -42 60 -35 73 6 10 41 9 47 -2z m1748 -48 c75 -72 -5 -187 -107 -153 -53 18 -65 35 -65 95 0 67 20 85 94 85 41 0 55 -5 78 -27z m-9971 -5 c25 -31 24 -46 -5 -54 -43 -10 -58 14 -36 57 14 24 18 24 41 -3z m8828 -17 c41 -22 100 -91 78 -91 -10 0 -87 42 -92 50 -3 5 -19 10 -36 10 -32 0 -38 14 -11 29 22 13 39 13 61 2z m-791 -469 c3 -27 0 -32 -17 -32 -17 0 -21 6 -21 36 0 48 33 45 38 -4z m156 -73 c25 -16 48 -34 51 -40 4 -5 15 -9 26 -9 10 0 28 -9 38 -19 10 -10 33 -22 50 -26 17 -4 34 -12 38 -19 5 -6 39 -27 76 -46 112 -57 131 -68 162 -93 27 -23 29 -27 16 -50 -9 -17 -12 -51 -10 -109 4 -83 4 -83 -29 -86 -20 -2 -47 5 -68 17 -19 12 -45 21 -57 21 -12 0 -42 10 -67 21 -24 11 -65 23 -90 26 -25 3 -54 12 -65 19 -11 8 -39 14 -62 14 -58 0 -68 21 -65 130 2 52 -3 106 -13 140 -15 58 -20 122 -8 133 12 13 32 7 77 -24z m-6039 -44 c0 -16 -6 -30 -12 -32 -9 -3 -13 7 -13 32 0 25 4 35 13 33 6 -3 12 -17 12 -33z m82 19 c8 -20 -17 -36 -34 -22 -10 8 -10 14 -2 24 15 18 28 18 36 -2z m-1138 -85 c5 -16 17 -29 25 -29 9 0 16 -9 16 -20 0 -21 36 -98 75 -160 12 -19 30 -66 40 -105 9 -38 26 -82 36 -97 32 -46 22 -102 -11 -63 -7 8 -21 15 -32 15 -13 0 -24 12 -35 38 -8 20 -21 44 -28 52 -15 17 -65 145 -65 167 0 8 -8 33 -19 56 -10 23 -21 50 -24 60 -4 11 -14 17 -24 15 -19 -4 -33 -46 -40 -126 -4 -43 -9 -55 -27 -62 -49 -18 -77 -117 -40 -138 18 -10 16 -43 -3 -49 -6 -2 -14 5 -18 16 -9 30 -41 27 -49 -4 -4 -15 -17 -30 -31 -35 -16 -6 -25 -17 -25 -30 0 -16 -5 -21 -22 -18 -18 2 -22 8 -20 28 2 14 3 48 2 76 -1 57 19 77 50 49 33 -30 41 -8 15 41 -19 36 -19 62 0 94 8 14 19 37 26 52 6 15 18 30 27 33 26 8 59 65 65 111 3 23 15 55 27 71 21 30 21 30 60 11 25 -13 42 -30 49 -49z m1177 6 c5 -11 15 -14 38 -9 30 5 34 3 50 -34 14 -30 29 -45 67 -62 41 -20 49 -28 49 -51 0 -19 6 -30 20 -34 25 -8 25 -31 0 -73 -11 -18 -20 -41 -20 -52 0 -10 -8 -25 -18 -32 -10 -7 -21 -21 -25 -31 -9 -25 -15 -22 -97 56 -72 69 -72 69 -65 125 6 60 5 65 -52 129 -26 29 -29 53 -11 71 17 17 58 15 64 -3z m-121 -183 c0 -31 -19 -28 -23 4 -3 18 0 25 10 22 7 -3 13 -14 13 -26z m6629 -41 c44 -21 91 -42 103 -45 11 -4 27 -13 33 -21 7 -8 21 -15 33 -15 11 0 35 -9 53 -21 33 -20 34 -22 34 -87 0 -79 5 -89 45 -94 23 -2 31 -9 33 -27 6 -42 -12 -45 -80 -13 -100 46 -160 71 -195 77 -17 4 -37 13 -44 21 -6 8 -22 14 -35 14 -68 0 -106 43 -77 87 20 30 19 77 -3 110 -40 62 -10 67 100 14z m-3714 -156 c0 -6 16 -25 36 -41 19 -16 44 -48 55 -71 11 -24 26 -43 34 -43 9 0 18 -13 22 -31 3 -17 16 -37 29 -46 13 -8 24 -21 24 -27 0 -7 11 -22 25 -34 14 -12 25 -26 25 -31 0 -5 9 -13 21 -16 16 -5 19 -12 15 -31 -5 -19 -2 -25 16 -29 13 -4 30 -21 38 -38 8 -18 29 -39 48 -47 18 -8 35 -25 38 -37 4 -13 14 -23 24 -23 13 0 20 -11 25 -37 7 -38 69 -123 89 -123 6 0 23 -8 36 -17 14 -10 36 -18 50 -18 17 0 29 -8 38 -27 25 -54 82 -58 82 -6 0 19 4 22 53 33 19 4 33 16 42 38 8 18 39 52 70 77 31 25 61 55 65 68 7 15 18 22 37 23 22 0 37 13 74 62 25 34 60 71 77 82 18 12 41 40 54 68 17 36 29 50 49 54 15 3 31 15 37 28 6 13 23 25 41 28 25 5 33 13 38 38 7 38 24 45 57 24 35 -23 33 -51 -6 -89 -18 -17 -46 -51 -63 -75 -16 -24 -38 -49 -47 -55 -10 -6 -18 -16 -18 -23 0 -6 -8 -14 -17 -18 -10 -3 -47 -40 -83 -82 -36 -42 -105 -115 -154 -162 -111 -106 -154 -153 -320 -341 -21 -25 -48 -49 -59 -55 -11 -5 -24 -18 -29 -27 -4 -10 -12 -26 -17 -35 -14 -29 -67 -39 -91 -18 -11 10 -20 26 -20 35 0 25 -68 160 -95 190 -13 14 -28 44 -34 66 -6 23 -18 47 -26 54 -8 7 -15 18 -15 25 0 7 -8 23 -19 36 -10 13 -22 35 -26 49 -4 14 -18 38 -31 53 -13 16 -24 33 -24 39 0 12 -68 127 -87 146 -7 7 -13 21 -13 30 0 9 -24 57 -53 105 -28 49 -58 101 -65 115 -7 15 -17 34 -23 42 -5 8 -20 39 -34 68 -13 29 -34 66 -46 83 -12 17 -18 37 -15 46 6 14 11 12 36 -12 17 -16 30 -34 30 -40z m1646 -26 c3 -6 0 -15 -7 -20 -22 -14 -29 -11 -29 11 0 21 24 27 36 9z m-4409 -79 c4 -14 17 -22 44 -26 52 -9 57 -20 14 -34 -58 -19 -109 18 -91 66 8 21 27 17 33 -6z m6031 -27 c26 -3 56 -12 67 -18 11 -7 49 -15 85 -19 77 -7 117 -31 112 -67 -2 -13 -3 -203 -4 -421 0 -398 0 -398 -24 -398 -14 0 -38 10 -54 21 -22 16 -44 22 -92 23 -35 0 -66 6 -70 11 -5 6 -7 177 -7 380 1 351 -3 451 -21 440 -18 -11 -21 -119 -15 -457 9 -404 3 -378 100 -444 49 -33 82 -34 380 -8 67 6 71 5 109 -25 28 -23 49 -31 77 -31 48 0 50 -14 7 -29 -26 -9 -30 -14 -18 -21 23 -15 57 -12 64 5 3 8 14 15 25 15 11 0 33 11 48 25 28 25 28 25 8 40 -12 10 -37 15 -65 14 -93 -5 -89 -24 -83 338 5 363 1 406 -39 411 -27 3 -74 -15 -65 -24 3 -3 -10 -49 -29 -102 -19 -53 -34 -114 -34 -134 0 -34 -3 -38 -24 -38 -34 0 -34 3 -40 119 -5 102 -5 102 25 113 35 12 29 21 -23 38 -30 9 -38 17 -38 35 0 13 -4 26 -9 30 -10 6 -41 63 -41 75 0 16 32 19 68 6 20 -8 63 -17 96 -20 36 -3 66 -12 78 -23 15 -14 39 -18 97 -20 42 -1 103 -10 136 -20 60 -19 60 -19 59 -64 0 -24 -4 -187 -8 -363 -9 -319 -9 -319 57 -312 45 5 67 4 72 -4 4 -7 9 -73 11 -147 5 -160 10 -173 64 -173 21 0 42 -5 45 -10 4 -6 23 -17 42 -25 43 -18 37 -25 -40 -49 -44 -13 -65 -15 -90 -7 -18 5 -52 13 -77 16 -84 13 -86 22 -7 39 33 8 36 26 4 26 -12 0 -41 10 -62 21 -34 19 -63 23 -195 28 -108 5 -163 11 -180 21 -17 10 -74 17 -185 22 -208 9 -326 19 -345 29 -14 6 -16 53 -18 351 -2 308 -8 431 -31 663 -4 39 -11 78 -15 88 -12 25 12 50 41 42 13 -3 44 -8 71 -12z m936 -128 c11 -8 33 -15 48 -15 33 0 88 -25 88 -40 0 -19 40 -50 65 -50 35 0 42 -26 15 -55 -12 -13 -20 -28 -17 -33 8 -12 8 -245 1 -309 -4 -35 -1 -65 9 -95 23 -62 28 -135 11 -149 -18 -15 -18 -38 1 -45 17 -7 21 -59 5 -69 -6 -4 -17 9 -25 27 -9 18 -19 40 -24 48 -62 106 -63 111 -60 374 2 246 2 246 -60 296 -34 28 -68 50 -74 50 -19 1 -70 57 -62 69 9 16 57 13 79 -4z m-2734 -350 c0 -78 -4 -115 -11 -115 -18 0 -5 -111 14 -125 22 -16 21 -23 -2 -43 -20 -18 -20 -34 9 -172 12 -54 12 -54 -22 -82 -30 -25 -72 -35 -118 -29 -54 7 -195 -1 -212 -13 -14 -10 -44 -12 -111 -9 -84 5 -95 8 -122 34 -17 16 -36 29 -42 29 -24 0 -23 21 2 44 21 19 23 25 10 30 -22 8 -18 44 7 57 13 7 31 22 41 35 9 13 26 25 36 29 10 3 24 18 31 33 12 27 12 27 23 5 5 -13 14 -23 20 -23 18 0 58 52 55 72 -5 31 29 48 47 24 19 -25 49 -14 40 14 -10 31 12 50 57 50 36 0 38 1 24 16 -26 26 -19 52 22 73 12 6 22 18 22 26 0 8 9 19 21 25 32 18 99 86 99 102 0 21 10 28 37 28 23 0 23 -1 23 -115z m-273 -73 c-9 -10 -17 -23 -17 -29 0 -19 -28 -35 -50 -28 -28 9 -25 33 8 48 15 6 33 20 41 30 9 13 16 16 24 8 7 -7 6 -16 -6 -29z m-2069 -5 c29 -27 28 -37 -5 -37 -16 0 -53 -7 -83 -15 -30 -8 -78 -15 -106 -15 -28 0 -75 -4 -105 -9 -30 -6 -90 -13 -134 -16 -198 -15 -251 -21 -262 -28 -13 -8 -43 1 -43 13 0 15 149 54 285 74 17 2 50 11 74 20 24 9 83 19 132 22 49 3 99 9 112 14 33 13 109 1 135 -23z m4628 -5 c7 -4 12 -38 12 -82 1 -41 1 -82 2 -90 1 -38 -14 -96 -26 -103 -20 -12 -17 -34 6 -40 43 -11 19 -27 -40 -27 -67 0 -68 1 -40 37 17 22 19 37 16 109 -4 71 -1 87 15 108 21 26 25 46 9 46 -5 0 -10 11 -10 25 0 26 30 35 56 17z m-4551 -125 c4 -17 14 -40 22 -49 15 -17 15 -48 -1 -51 -5 -1 -14 12 -19 28 -6 17 -16 34 -23 38 -8 4 -14 21 -14 36 0 52 24 51 35 -2z m-950 -7 c8 -13 -40 -24 -72 -15 -26 7 -26 8 -8 15 28 12 73 12 80 0z m-4633 -42 c37 -40 58 -80 58 -111 0 -14 7 -27 15 -31 17 -6 20 -41 5 -51 -5 -3 -7 -19 -4 -34 7 -33 -10 -71 -31 -71 -20 0 -27 -17 -16 -39 15 -27 -19 -57 -47 -42 -12 6 -28 8 -37 5 -9 -4 -24 1 -36 11 -19 18 -20 18 -40 -3 -11 -12 -26 -22 -33 -22 -7 0 -18 -12 -24 -26 -13 -27 -32 -24 -32 4 0 10 -9 23 -20 30 -36 22 -25 56 41 117 46 42 59 59 50 68 -18 18 -13 37 13 47 13 5 27 18 31 29 4 14 19 23 48 28 36 7 42 12 42 33 0 16 -7 26 -17 28 -13 2 -18 -3 -18 -17 0 -14 -6 -21 -20 -21 -27 0 -27 37 0 45 11 3 23 17 26 31 8 31 10 30 46 -8z m4482 -4 c22 -21 20 -67 -4 -111 -11 -21 -20 -43 -20 -49 0 -7 -6 -14 -14 -17 -10 -4 -16 -24 -18 -54 -3 -44 -5 -48 -31 -51 -28 -3 -28 -3 -26 66 1 38 -1 74 -5 80 -6 10 19 54 59 107 8 10 15 25 15 32 0 18 25 16 44 -3z m-1743 -14 c22 -12 42 -29 45 -38 3 -9 12 -29 20 -44 8 -14 14 -35 14 -46 0 -11 12 -27 26 -37 18 -11 24 -23 21 -36 -4 -13 3 -25 19 -35 26 -17 32 -49 12 -56 -7 -3 -184 -4 -393 -2 -230 1 -384 -1 -391 -7 -7 -5 -10 -18 -7 -28 4 -16 -3 -19 -64 -23 -44 -3 -80 0 -102 8 -18 8 -66 14 -105 14 -39 0 -77 4 -83 8 -16 10 0 74 22 92 8 7 15 21 15 33 0 11 20 39 43 63 42 42 45 43 75 32 27 -11 34 -10 44 5 10 12 34 18 93 23 44 3 89 10 100 14 29 13 116 22 237 23 58 1 110 5 114 10 4 4 21 7 38 7 18 0 42 7 54 16 12 8 31 13 41 9 11 -3 22 -1 26 5 10 16 42 12 86 -10z m2217 -33 c12 -6 22 -17 22 -24 0 -22 29 -27 50 -8 24 22 188 39 265 28 28 -4 52 -6 55 -6 108 15 120 14 120 -6 0 -11 18 -46 39 -78 42 -63 40 -83 -8 -83 -15 0 -31 -8 -39 -20 -11 -19 -23 -20 -160 -20 -82 0 -152 -3 -155 -7 -14 -13 -232 -11 -283 3 -27 8 -77 14 -110 14 -107 -1 -159 6 -186 24 -34 22 -34 27 -4 55 29 27 88 44 125 36 33 -7 61 15 61 46 0 14 9 21 30 25 16 4 34 12 40 19 13 16 106 17 138 2z m-4863 -283 c0 -19 -6 -30 -17 -32 -19 -4 -24 21 -12 53 10 25 29 12 29 -21z m78 21 c7 -17 -8 -29 -28 -21 -17 6 -9 36 10 36 7 0 15 -7 18 -15z m3297 -50 c0 -15 -43 -12 -48 3 -3 10 4 13 22 10 15 -2 26 -7 26 -13z m-3883 -41 c8 -21 -13 -42 -28 -27 -13 13 -5 43 11 43 6 0 13 -7 17 -16z m5993 -4 c28 -7 212 -13 480 -16 472 -5 483 -6 478 -32 -2 -9 -11 -15 -19 -13 -37 9 -449 2 -469 -9 -16 -8 -30 -8 -55 0 -19 6 -40 8 -46 4 -6 -3 -57 -8 -113 -9 -55 -1 -164 -8 -241 -15 -77 -6 -203 -14 -280 -16 -77 -2 -147 -4 -155 -5 -8 -1 -119 -1 -245 0 -127 1 -238 -1 -245 -4 -8 -3 -78 4 -155 16 -77 12 -163 21 -192 20 -28 -1 -54 2 -56 6 -3 5 -183 8 -400 7 -352 0 -398 -2 -421 -17 -34 -23 -51 -21 -68 5 -14 21 -14 21 -46 -2 -29 -21 -36 -23 -64 -12 -22 8 -36 8 -51 1 -17 -9 -210 -14 -404 -9 -24 1 -59 1 -78 1 -19 0 -50 0 -67 1 -18 0 -96 -1 -173 -2 -143 -3 -228 6 -223 22 4 11 176 19 423 20 99 0 191 5 205 10 14 6 89 9 168 8 92 -1 148 3 157 10 9 7 26 8 60 0 32 -7 51 -7 59 -1 8 7 157 11 397 12 505 1 756 6 774 16 23 13 1013 16 1065 3z m-5863 -16 c6 -16 -19 -44 -39 -44 -12 0 -21 28 -14 45 7 20 45 19 53 -1z m7089 -4 c33 -13 26 -21 -33 -36 -32 -8 -55 -9 -75 -2 -19 7 -38 6 -59 -1 -45 -15 -49 -14 -49 13 0 22 5 25 43 29 88 8 147 7 173 -3z m574 -15 c10 -9 42 -16 83 -18 64 -3 87 -10 74 -23 -13 -13 -139 -10 -153 3 -10 11 -47 12 -181 6 -205 -9 -281 -7 -310 9 -55 28 -18 32 301 36 138 2 173 -1 186 -13z m-7730 -41 c0 -11 -8 -14 -27 -12 -39 4 -42 28 -4 28 21 0 31 -5 31 -16z m8080 8 c0 -4 -25 -8 -55 -9 -30 -1 -55 3 -55 8 0 5 25 9 55 9 30 0 55 -4 55 -8z m264 -1 c29 -11 4 -22 -34 -15 -22 5 -28 9 -18 15 15 10 26 10 52 0z m-5829 -31 c12 -19 -51 -32 -185 -37 -135 -5 -135 -5 -109 16 18 14 45 21 90 24 139 7 198 7 204 -3z m-336 -9 c23 -15 2 -31 -43 -31 -23 0 -46 -4 -51 -9 -10 -10 -66 -17 -200 -27 -44 -3 -84 -10 -90 -14 -23 -19 -82 -22 -98 -5 -37 36 -16 49 53 33 46 -11 53 -10 62 5 7 13 23 17 64 17 35 0 67 7 85 17 24 14 33 15 49 5 27 -17 78 -15 96 3 17 17 52 19 73 6z m8556 -11 c8 -12 -42 -12 -70 0 -16 7 -11 9 22 9 23 1 45 -3 48 -9z m-9161 -69 c15 -23 -185 -51 -396 -57 -134 -3 -158 -1 -158 11 0 15 31 18 233 19 54 1 70 5 78 19 9 15 26 17 124 17 63 0 116 -4 119 -9z m7687 -6 c0 -5 -12 -11 -26 -13 -18 -2 -25 1 -25 13 0 12 7 15 25 13 14 -2 26 -7 26 -13z"/>
<path d="M14307 11413 c-4 -3 -7 -17 -7 -30 0 -35 34 -26 38 10 3 26 -14 37 -31 20z"/>
<path d="M8655 11139 c-4 -5 -15 -9 -25 -9 -31 0 -33 -18 -5 -46 24 -24 29 -25 98 -19 39 3 82 8 94 11 28 5 41 43 19 59 -19 14 -173 18 -181 4z"/>
<path d="M9764 10920 c4 -21 1 -32 -8 -36 -23 -9 -25 -51 -27 -414 -2 -260 1 -351 10 -368 7 -13 10 -30 7 -38 -3 -7 1 -17 8 -21 8 -5 15 -17 17 -28 3 -13 14 -21 32 -23 36 -4 35 29 -1 38 -36 8 -27 24 18 31 62 8 71 25 21 39 -36 10 -41 14 -41 40 0 27 2 29 19 19 45 -29 68 16 26 49 -30 24 -33 63 -9 112 15 30 15 35 1 59 -13 22 -13 31 -2 57 14 34 11 244 -4 273 -5 9 -12 55 -16 103 -7 81 -6 87 14 97 36 20 27 42 -11 28 -24 -9 -32 -9 -35 1 -9 26 -25 11 -19 -18z"/>
<path d="M10274 9955 c-12 -49 12 -69 50 -42 16 12 16 14 -4 40 -27 34 -38 34 -46 2z"/>
<path d="M10270 9782 c0 -33 32 -67 55 -59 21 9 18 28 -10 60 -31 35 -45 34 -45 -1z"/>
<path d="M12865 11029 c-10 -15 25 -70 42 -67 30 6 40 36 18 52 -26 19 -54 26 -60 15z"/>
<path d="M13100 11020 c0 -10 -7 -23 -15 -30 -16 -13 -21 -50 -6 -50 5 0 14 7 21 15 10 12 24 14 56 9 48 -7 134 21 134 44 0 17 -12 20 -107 25 -73 3 -83 2 -83 -13z"/>
<path d="M12982 11017 c-15 -17 -6 -27 25 -27 18 0 24 5 21 17 -4 22 -31 28 -46 10z"/>
<path d="M12776 10926 c-3 -13 -8 -31 -12 -39 -8 -22 24 -49 45 -37 23 12 35 68 20 86 -18 22 -46 17 -53 -10z"/>
<path d="M13431 10922 c-55 -27 -128 -142 -91 -142 6 0 10 7 10 15 0 19 35 37 63 33 30 -4 28 -32 -3 -36 -37 -5 -44 -17 -26 -44 12 -19 14 -32 6 -58 -14 -48 -13 -52 13 -48 18 2 23 11 27 48 3 25 17 69 33 98 22 41 24 52 12 52 -28 0 -19 59 11 70 27 11 24 30 -4 30 -9 0 -33 -8 -51 -18z"/>
<path d="M13030 10840 c-15 -28 -4 -90 15 -90 17 0 28 36 23 76 -4 35 -23 42 -38 14z"/>
<path d="M13320 10640 c0 -34 14 -39 29 -12 7 13 6 23 -1 30 -19 19 -28 14 -28 -18z"/>
<path d="M12910 10583 c-8 -2 -24 -8 -35 -13 -11 -5 -36 -13 -55 -18 -35 -8 -35 -8 -35 -73 0 -64 0 -64 115 -60 63 2 117 5 119 7 5 5 8 136 3 152 -4 12 -80 16 -112 5z"/>
<path d="M13100 10550 c-12 -28 -10 -114 3 -127 9 -8 184 -16 212 -9 37 9 32 42 -7 61 -18 8 -46 24 -63 35 -16 11 -50 30 -75 42 -25 12 -48 24 -51 25 -4 2 -12 -10 -19 -27z"/>
<path d="M14336 10473 c-17 -3 -30 -12 -33 -24 -3 -10 -12 -19 -19 -19 -8 0 -17 -8 -21 -17 -3 -10 -12 -25 -20 -34 -11 -14 -11 -18 2 -29 17 -14 20 -40 5 -40 -5 0 -10 -7 -10 -15 0 -8 5 -15 10 -15 6 0 10 7 10 15 0 8 6 15 13 15 17 0 101 79 110 103 3 9 11 17 17 17 5 0 10 9 10 20 0 11 -4 20 -9 20 -5 0 -15 2 -23 3 -7 2 -26 2 -42 0z"/>
<path d="M13864 10366 c-3 -8 -23 -17 -44 -21 -21 -4 -44 -13 -50 -21 -7 -7 -27 -16 -46 -20 -18 -3 -38 -12 -44 -19 -6 -8 -29 -16 -50 -20 -21 -4 -44 -13 -50 -21 -7 -7 -27 -16 -46 -20 -18 -3 -38 -12 -45 -20 -6 -7 -27 -17 -47 -20 -20 -4 -51 -16 -69 -26 -33 -20 -33 -20 -32 -111 0 -51 4 -127 7 -169 4 -42 6 -82 4 -87 -6 -18 -57 -13 -83 8 -13 10 -35 22 -49 26 -14 4 -32 13 -40 20 -8 8 -27 16 -42 20 -15 4 -32 13 -39 21 -6 8 -17 14 -24 14 -6 0 -33 11 -59 25 -26 14 -53 25 -60 25 -8 0 -19 6 -25 14 -7 8 -27 18 -44 22 -18 3 -43 15 -56 25 -13 11 -31 19 -40 19 -9 0 -29 9 -46 20 -16 11 -37 20 -46 20 -9 0 -28 9 -42 20 -14 11 -32 20 -40 20 -8 0 -26 9 -40 20 -14 11 -32 20 -40 20 -7 0 -24 9 -37 20 -13 11 -31 20 -40 20 -10 0 -28 8 -41 19 -13 10 -34 21 -46 25 -11 4 -27 13 -33 21 -14 17 -66 20 -75 5 -9 -14 64 -80 87 -80 9 0 22 -9 28 -20 6 -11 18 -20 28 -20 9 0 42 -17 72 -38 30 -20 66 -43 80 -50 14 -7 39 -21 55 -32 17 -11 44 -27 61 -34 17 -8 36 -22 44 -30 7 -9 16 -16 21 -16 5 0 35 -18 66 -40 32 -22 62 -40 66 -40 4 0 30 -18 58 -40 28 -22 55 -40 59 -40 5 0 62 -36 128 -80 65 -44 124 -80 130 -80 7 0 12 -5 12 -11 0 -5 15 -16 33 -24 19 -8 39 -21 47 -29 7 -9 18 -16 24 -16 6 0 26 -16 43 -35 41 -45 76 -47 98 -6 8 16 122 137 252 269 131 132 281 284 333 337 52 54 105 104 117 112 52 35 29 51 -116 83 -25 6 -52 16 -60 24 -9 8 -35 19 -58 25 -23 7 -45 16 -48 21 -9 15 -55 12 -61 -4z m26 -92 c6 -14 10 -79 10 -145 0 -128 -6 -143 -48 -120 -11 6 -60 14 -109 17 -48 4 -97 12 -108 19 -11 7 -46 15 -78 19 -47 6 -60 12 -66 29 -13 33 -9 34 96 42 82 6 102 11 126 31 16 13 32 24 36 24 4 0 25 22 47 49 35 44 49 56 77 60 4 0 12 -11 17 -25z m-366 -487 c15 -24 -3 -35 -20 -13 -8 11 -14 24 -14 29 0 13 22 3 34 -16z"/>
<path d="M14546 10316 c-15 -12 -67 -61 -114 -109 -157 -160 -659 -655 -739 -727 -16 -14 -76 -76 -135 -138 -120 -126 -108 -124 -207 -35 -20 18 -41 33 -47 33 -6 0 -26 14 -45 31 -19 17 -46 39 -60 48 -14 9 -69 50 -123 91 -186 143 -255 195 -366 275 -116 84 -264 195 -290 217 -8 8 -35 27 -60 43 -24 17 -52 37 -61 45 -49 43 -78 62 -136 89 -11 5 -24 15 -28 20 -9 15 -35 14 -35 -1 0 -6 41 -52 90 -101 50 -49 90 -95 90 -102 0 -7 14 -15 30 -18 21 -5 30 -12 30 -26 0 -11 11 -31 25 -45 14 -14 25 -32 25 -39 0 -8 7 -17 15 -21 8 -3 15 -11 15 -18 0 -23 65 -67 90 -61 22 6 23 4 18 -40 -5 -47 -1 -56 18 -37 12 12 105 -1 104 -15 0 -5 -12 -10 -27 -10 -32 0 -43 -24 -14 -32 13 -3 24 -18 30 -37 8 -31 8 -31 19 -3 16 39 34 34 81 -22 45 -53 49 -67 26 -97 -16 -22 -20 -60 -6 -69 5 -3 13 4 16 15 9 28 47 23 60 -7 5 -13 18 -23 27 -23 21 0 92 -17 168 -40 64 -20 82 -50 31 -50 -17 0 -31 -4 -31 -8 0 -17 57 -50 98 -57 56 -9 97 -30 122 -62 28 -36 54 -53 87 -58 16 -2 38 -7 50 -11 16 -4 25 -1 29 10 11 28 73 21 84 -9 13 -34 34 -31 76 8 19 17 46 42 60 54 13 12 27 36 31 53 7 38 30 51 77 43 40 -6 48 8 20 38 -22 25 -10 41 21 27 35 -16 57 -4 49 26 -4 19 0 28 19 40 13 9 32 34 42 56 10 22 22 40 27 40 5 0 16 16 24 36 13 31 19 35 39 30 14 -4 27 -1 32 6 4 7 17 18 28 24 11 6 21 23 23 38 2 14 8 26 13 26 16 0 109 92 125 122 8 15 23 28 33 28 26 0 71 38 71 60 0 28 47 78 78 82 22 2 28 9 30 33 5 41 21 57 48 51 18 -5 29 1 46 25 13 17 40 40 61 50 23 12 37 27 37 38 0 29 28 53 48 42 9 -5 47 -12 84 -16 52 -5 71 -11 82 -27 15 -21 15 -21 62 2 35 16 58 20 85 16 26 -4 40 -2 49 9 7 8 23 15 35 15 12 0 34 9 48 20 14 11 34 20 45 20 11 0 25 7 32 16 8 8 29 22 49 30 35 15 35 15 6 39 -26 21 -41 24 -105 25 -41 0 -183 2 -315 4 -231 3 -241 2 -269 -18z m-1683 -815 c7 -19 21 -32 41 -38 39 -11 41 -37 3 -41 -34 -4 -87 47 -87 85 0 33 29 29 43 -6z"/>
<path d="M11125 10289 c-23 -6 -33 -17 -42 -46 -17 -54 -1 -64 40 -25 38 37 44 38 68 16 23 -21 106 -27 113 -8 7 18 35 18 42 0 9 -23 160 -20 174 3 9 15 11 15 20 -1 13 -22 40 -24 40 -3 0 24 31 31 46 10 12 -16 15 -16 43 6 40 32 39 49 -1 50 -182 6 -519 4 -543 -2z"/>
<path d="M14666 10134 c-7 -18 8 -34 32 -34 6 0 12 -4 12 -10 0 -5 5 -10 11 -10 6 0 9 14 7 33 -2 26 -8 33 -29 35 -18 2 -29 -3 -33 -14z"/>
<path d="M14616 10057 c-24 -17 -13 -37 20 -37 20 0 25 4 22 22 -4 27 -18 32 -42 15z"/>
<path d="M14755 9981 c-3 -11 -2 -28 3 -37 9 -15 11 -15 22 6 10 18 9 25 -3 37 -13 14 -16 13 -22 -6z"/>
<path d="M11270 9823 c0 -10 4 -25 10 -33 8 -12 10 -12 16 3 7 20 -1 47 -16 47 -5 0 -10 -8 -10 -17z"/>
<path d="M14295 9740 c-10 -16 16 -43 28 -31 11 11 2 41 -12 41 -5 0 -13 -5 -16 -10z"/>
<path d="M11366 9670 c-14 -27 -26 -58 -26 -69 0 -10 -6 -24 -14 -30 -8 -7 -18 -27 -22 -44 -3 -18 -15 -43 -25 -56 -11 -13 -19 -34 -19 -47 0 -13 -6 -27 -14 -31 -7 -4 -19 -25 -25 -45 -7 -21 -16 -38 -21 -38 -4 0 -11 -15 -14 -34 -4 -19 -13 -39 -21 -46 -7 -6 -17 -24 -20 -40 -3 -16 -12 -34 -20 -40 -7 -6 -16 -23 -20 -38 -4 -15 -12 -34 -20 -42 -7 -8 -16 -26 -20 -40 -4 -14 -13 -32 -20 -40 -7 -8 -16 -26 -20 -40 -4 -14 -16 -36 -26 -49 -11 -13 -19 -29 -19 -36 0 -6 -9 -20 -20 -30 -11 -10 -20 -28 -20 -40 0 -31 -28 -96 -51 -118 -10 -10 -19 -26 -19 -36 0 -10 -9 -26 -20 -36 -11 -10 -20 -30 -20 -45 0 -15 -9 -35 -20 -45 -11 -10 -20 -26 -20 -35 0 -10 -10 -29 -21 -44 -12 -16 -18 -31 -13 -36 15 -14 95 1 101 19 2 9 14 35 25 59 18 40 22 43 49 37 16 -4 38 -4 49 0 37 12 21 25 -30 25 -57 0 -62 10 -22 45 27 23 27 24 7 38 -19 14 -19 16 -2 34 9 11 17 30 17 44 1 50 35 73 118 81 156 14 537 20 622 10 96 -12 115 -5 105 37 -4 14 -15 35 -25 46 -10 11 -21 31 -25 45 -4 14 -16 36 -26 49 -11 13 -19 30 -19 38 0 8 -9 26 -20 40 -11 14 -20 35 -20 45 0 11 -9 31 -20 45 -11 14 -20 35 -20 45 0 11 -9 31 -20 45 -11 14 -20 36 -20 48 0 12 -7 28 -15 35 -8 7 -17 28 -21 49 -4 20 -12 43 -19 51 -7 8 -16 29 -20 47 -3 17 -13 37 -21 44 -8 6 -14 17 -14 23 0 6 -9 40 -19 76 -11 36 -23 77 -26 93 -8 41 -30 33 -59 -23z m-26 -385 c0 -15 -34 -69 -37 -59 -5 16 15 64 27 64 5 0 10 -2 10 -5z m-72 -193 c-6 -61 -100 -191 -106 -146 -2 14 3 33 11 42 9 10 19 29 22 45 4 15 11 30 16 33 5 3 16 21 24 40 21 51 38 44 33 -14z"/>
<path d="M14992 9653 c5 -26 38 -29 38 -4 0 15 -6 21 -21 21 -14 0 -19 -5 -17 -17z"/>
<path d="M14902 9643 c5 -26 38 -29 38 -4 0 15 -6 21 -21 21 -14 0 -19 -5 -17 -17z"/>
<path d="M11757 9527 c-9 -25 7 -39 28 -24 10 8 15 19 11 25 -10 16 -33 15 -39 -1z"/>
<path d="M13982 9470 c-34 -46 -26 -63 19 -40 12 7 19 21 19 40 0 38 -10 38 -38 0z"/>
<path d="M12782 9368 c3 -7 15 -15 27 -16 16 -3 22 1 19 10 -3 7 -15 15 -27 16 -16 3 -22 -1 -19 -10z"/>
<path d="M13664 9104 c-16 -24 -16 -26 0 -42 21 -21 36 -4 36 41 0 34 -14 35 -36 1z"/>
<path d="M13415 9069 c-4 -12 -2 -26 3 -31 17 -17 42 -1 42 27 0 32 -35 35 -45 4z"/>
<path d="M13551 9031 c-14 -26 -7 -41 19 -41 29 0 35 20 12 42 -20 20 -20 20 -31 -1z"/>
<path d="M13325 8890 c-4 -7 -3 -16 2 -21 12 -12 45 0 40 15 -5 15 -34 19 -42 6z"/>
<path d="M10792 8758 c-7 -7 -12 -16 -12 -21 0 -4 -9 -29 -21 -55 -23 -50 -53 -81 -81 -82 -22 0 -24 -38 -3 -46 16 -7 21 -44 5 -44 -5 0 -13 7 -18 16 -13 22 -32 9 -32 -22 0 -17 -8 -27 -25 -34 -27 -10 -30 -21 -15 -51 8 -14 7 -27 -5 -48 -21 -41 -19 -61 5 -61 11 0 20 7 20 15 0 8 11 22 25 31 14 9 25 25 25 35 0 11 7 22 15 25 8 3 17 16 21 27 4 12 15 33 25 46 25 31 24 58 -1 66 -11 3 -20 13 -20 20 0 24 18 26 39 4 22 -24 23 -22 35 34 15 68 20 83 37 105 26 34 10 69 -19 40z"/>
<path d="M12360 8646 c-14 -7 -61 -17 -105 -21 -44 -4 -93 -14 -108 -22 -16 -8 -56 -17 -90 -21 -48 -6 -62 -11 -65 -25 -5 -25 16 -47 43 -47 12 0 28 -7 36 -16 17 -21 123 -10 161 17 49 35 114 19 76 -19 -9 -9 -2 -12 35 -12 41 0 49 3 56 24 11 28 32 37 69 30 22 -4 33 2 60 36 21 25 32 49 30 63 -3 21 -8 22 -88 24 -57 2 -93 -2 -110 -11z"/>
<path d="M12512 8483 c3 -30 23 -41 31 -18 9 21 -2 45 -20 45 -10 0 -13 -9 -11 -27z"/>
<path d="M15357 8145 c-7 -57 -8 -263 -1 -308 5 -33 8 -36 21 -25 13 11 15 36 10 168 -5 163 -19 242 -30 165z"/>
<path d="M9061 10016 c-15 -18 2 -56 25 -56 11 0 14 9 12 32 -3 36 -19 46 -37 24z"/>
<path d="M8930 9653 c0 -5 15 -25 33 -45 33 -36 33 -36 132 -34 85 1 100 4 103 18 2 11 -5 19 -20 23 -164 39 -248 52 -248 38z"/>
<path d="M9220 9575 c0 -8 11 -22 24 -31 14 -8 26 -25 28 -37 2 -17 10 -22 33 -22 17 0 39 -5 50 -11 24 -13 85 -26 85 -18 0 4 -13 22 -30 41 -16 18 -30 40 -30 48 0 21 -27 31 -97 38 -51 6 -63 4 -63 -8z"/>
<path d="M8060 8923 c1 -10 7 -29 15 -43 14 -25 14 -24 15 18 0 31 -4 42 -15 42 -8 0 -15 -8 -15 -17z"/>
<path d="M9583 8921 c-3 -12 -13 -21 -24 -21 -11 0 -19 -4 -19 -10 0 -5 9 -10 20 -10 11 0 20 4 20 9 0 5 9 11 21 14 22 6 22 28 0 35 -7 2 -15 -5 -18 -17z"/>
<path d="M9270 8895 c0 -23 26 -29 73 -18 42 10 42 10 14 21 -41 17 -87 15 -87 -3z"/>
<path d="M8127 8693 c-27 -8 -51 -21 -54 -30 -13 -34 56 -44 105 -16 29 17 31 17 53 -2 22 -20 22 -20 16 14 -4 18 -7 37 -7 42 0 13 -58 9 -113 -8z"/>
<path d="M7920 8625 c-19 -7 -46 -14 -60 -15 -14 0 -34 -7 -44 -15 -10 -8 -23 -12 -28 -9 -5 3 -20 -2 -34 -11 -16 -11 -35 -14 -53 -10 -22 5 -35 0 -55 -17 -46 -40 -17 -50 132 -48 13 0 35 9 49 20 14 11 38 20 53 20 65 0 133 39 128 74 -4 26 -39 30 -88 11z"/>
<path d="M8125 8571 c-19 -8 -18 -9 8 -22 29 -13 61 -4 59 16 -2 13 -42 16 -67 6z"/>
<path d="M7151 7971 c-8 -5 -11 -16 -6 -30 5 -16 1 -23 -20 -33 -32 -15 -27 -30 14 -42 42 -12 69 10 52 43 -8 14 -9 27 -2 40 15 28 -7 41 -38 22z"/>
<path d="M15707 9983 c-26 -25 12 -73 58 -73 22 0 18 17 -5 23 -14 3 -20 14 -20 31 0 24 -18 35 -33 19z"/>
<path d="M15990 9644 c0 -12 42 -64 51 -64 16 0 10 19 -16 45 -26 25 -35 30 -35 19z"/>
<path d="M16311 9527 c-5 -13 -19 -27 -31 -30 -25 -6 -18 -27 9 -27 21 0 48 27 53 54 5 29 -21 31 -31 3z"/>
<path d="M16360 9461 c-23 -16 2 -33 41 -29 22 2 34 8 34 18 0 18 -52 25 -75 11z"/>
<path d="M16477 9384 c-14 -14 -6 -24 19 -24 16 0 24 5 22 13 -5 14 -31 21 -41 11z"/>
<path d="M15716 8664 c-10 -25 -7 -34 9 -34 9 0 15 9 15 25 0 28 -15 34 -24 9z"/>
<path d="M15977 9342 c-14 -15 -15 -28 -6 -87 10 -73 19 -92 39 -80 9 5 11 31 8 87 -5 88 -16 108 -41 80z"/>
<path d="M14157 8373 c-13 -13 -7 -53 8 -53 10 0 15 10 15 30 0 29 -9 38 -23 23z"/>
<path d="M7955 13091 c-3 -6 10 -14 30 -20 19 -5 50 -22 67 -36 28 -23 39 -27 81 -22 92 8 88 44 -7 54 -31 3 -61 12 -67 19 -13 16 -95 19 -104 5z"/>
<path d="M14303 13085 c-3 -9 -3 -18 0 -22 10 -10 37 6 37 22 0 20 -29 20 -37 0z"/>
<path d="M11730 13060 c-13 -9 -13 -11 0 -20 8 -5 17 -10 20 -10 3 0 12 5 20 10 13 9 13 11 0 20 -8 5 -17 10 -20 10 -3 0 -12 -5 -20 -10z"/>
<path d="M8214 13015 c-9 -22 4 -35 35 -35 15 0 38 -9 51 -20 15 -13 37 -20 63 -20 27 0 48 -7 62 -20 17 -16 40 -22 106 -26 46 -3 86 -9 89 -13 3 -5 20 -12 37 -16 18 -3 36 -13 41 -21 4 -7 30 -17 57 -21 28 -3 62 -15 77 -26 21 -16 43 -20 100 -20 60 0 75 -3 86 -18 10 -14 26 -19 60 -19 29 0 57 -7 72 -17 13 -9 48 -20 78 -24 30 -4 61 -14 70 -22 10 -8 43 -17 76 -21 32 -3 66 -10 75 -15 27 -14 95 -21 110 -11 22 13 -4 40 -39 40 -15 0 -39 9 -53 20 -15 12 -40 20 -65 20 -24 0 -49 8 -65 20 -18 15 -44 22 -83 23 -37 2 -60 8 -68 18 -7 10 -32 18 -68 21 -34 3 -65 12 -76 21 -13 12 -37 17 -80 17 -43 0 -74 6 -99 20 -21 11 -54 20 -73 20 -19 0 -55 9 -79 20 -24 11 -49 20 -56 20 -6 0 -20 9 -30 20 -13 15 -31 20 -67 20 -27 0 -63 7 -81 16 -17 9 -60 19 -94 22 -49 4 -66 9 -74 23 -12 24 -87 27 -95 4z"/>
<path d="M7511 13006 c-6 -7 -29 -16 -51 -20 -22 -3 -40 -11 -40 -16 0 -5 -11 -12 -24 -16 -14 -3 -32 -14 -42 -25 -9 -10 -23 -19 -29 -19 -7 0 -24 -9 -38 -20 -14 -11 -36 -20 -50 -20 -13 0 -36 -11 -51 -25 -15 -14 -38 -25 -52 -25 -17 0 -24 -5 -24 -20 0 -25 65 -28 96 -5 10 8 37 20 59 26 21 6 50 19 63 30 14 10 30 19 38 19 23 0 109 48 134 75 14 15 40 33 58 40 17 8 32 19 32 24 0 16 -66 13 -79 -3z"/>
<path d="M8257 12894 c-11 -12 3 -24 29 -24 16 0 24 5 22 13 -5 13 -40 22 -51 11z"/>
<path d="M14547 12144 c-14 -15 -6 -34 14 -34 14 0 19 5 17 17 -3 18 -20 27 -31 17z"/>
<path d="M15941 11880 c-53 -11 -71 -25 -71 -57 0 -16 10 -29 31 -41 152 -84 209 -150 209 -244 0 -82 -46 -120 -166 -137 -80 -12 -107 -3 -174 56 -63 56 -83 65 -105 50 -30 -22 8 -131 75 -216 22 -28 40 -60 40 -73 0 -21 45 -78 62 -78 5 0 28 -9 51 -19 43 -20 144 -28 278 -22 81 4 92 -3 231 -141 62 -61 98 -104 98 -118 0 -31 25 -35 62 -8 62 44 114 58 149 41 17 -8 33 -21 36 -29 12 -31 71 3 98 57 15 28 15 29 -14 41 -26 11 -121 96 -282 249 -80 76 -119 144 -119 206 0 92 -36 139 -51 66 -3 -17 -13 -41 -22 -54 -10 -13 -17 -39 -17 -57 0 -56 -42 -114 -102 -141 -29 -13 -66 -29 -81 -37 -31 -15 -144 -19 -165 -5 -10 6 -5 11 17 21 35 14 38 22 16 40 -22 18 -18 27 15 33 22 5 33 16 44 42 11 25 21 35 38 35 39 0 53 15 41 43 -18 39 -2 54 41 39 40 -15 56 -10 56 18 0 11 -11 22 -30 29 -24 8 -44 41 -26 41 20 0 56 -22 56 -35 0 -27 69 -20 80 9 5 13 14 27 19 31 21 12 11 68 -25 139 -21 39 -47 91 -60 116 -12 25 -31 46 -41 48 -10 2 -45 16 -78 32 -67 33 -146 44 -214 30z m531 -737 c193 -192 217 -218 201 -234 -11 -11 -16 -7 -126 91 -139 124 -205 199 -192 220 12 20 31 8 117 -77z"/>
<path d="M15266 11852 c-9 -14 12 -35 28 -29 23 9 20 37 -3 37 -11 0 -22 -4 -25 -8z"/>
<path d="M15072 11243 c2 -10 13 -19 25 -21 12 -2 27 -10 33 -18 14 -16 50 -19 50 -4 0 6 -9 10 -19 10 -13 0 -21 8 -23 23 -2 17 -11 23 -36 25 -28 3 -33 0 -30 -15z"/>
<path d="M17737 11254 c-4 -4 -7 -11 -7 -16 0 -13 50 -6 53 7 2 12 -36 19 -46 9z"/>
<path d="M7153 10846 c-65 -24 -75 -42 -68 -121 8 -74 27 -135 44 -135 13 0 31 64 31 108 0 20 6 35 15 38 17 7 66 104 59 116 -7 11 -42 8 -81 -6z"/>
<path d="M7004 10527 c-12 -12 -49 -48 -82 -81 -34 -32 -64 -66 -67 -76 -3 -10 -17 -25 -30 -34 -21 -14 -23 -20 -15 -42 13 -33 13 -771 1 -779 -5 -3 -30 0 -55 7 -37 10 -46 17 -51 40 -8 34 -22 36 -35 4 -5 -14 -18 -30 -30 -36 -11 -6 -20 -17 -20 -24 0 -22 -49 -49 -65 -36 -47 39 -63 530 -17 530 24 0 72 51 72 77 0 15 6 23 18 23 23 0 42 19 42 42 0 9 8 25 19 35 10 10 22 29 26 42 4 14 17 32 28 41 11 9 17 22 13 28 -10 17 -41 15 -56 -3 -7 -8 -21 -15 -31 -15 -35 0 -95 -31 -127 -65 -34 -36 -51 -88 -33 -99 6 -4 11 -25 11 -47 0 -33 -4 -41 -25 -49 -14 -5 -28 -18 -32 -27 -3 -10 -14 -37 -24 -60 -25 -56 -27 -248 -3 -295 9 -17 14 -42 11 -57 -3 -14 -11 -49 -18 -78 -13 -57 -7 -98 15 -106 20 -8 75 9 98 30 13 12 37 18 78 18 39 1 65 6 77 17 10 9 47 19 81 23 35 4 75 13 90 20 14 8 54 17 89 21 35 3 66 10 68 15 3 4 27 11 53 14 87 12 100 16 117 41 14 21 14 28 3 41 -10 12 -13 82 -15 304 0 158 -4 297 -8 308 -5 17 -15 21 -45 21 -73 0 -72 -4 -64 151 7 139 7 139 -17 139 -13 0 -34 -10 -45 -23z m-67 -239 c24 -30 28 -72 37 -378 9 -264 3 -314 -36 -318 -49 -6 -58 54 -58 405 0 303 0 303 24 303 13 0 28 -6 33 -12z"/>
<path d="M17795 9650 c-4 -7 -3 -16 2 -21 12 -12 45 0 40 15 -5 15 -34 19 -42 6z"/>
<path d="M7227 9624 c-4 -4 -7 -11 -7 -16 0 -13 50 -6 53 7 2 12 -36 19 -46 9z"/>
<path d="M7467 9573 c-14 -13 -7 -33 11 -33 19 0 42 18 42 32 0 10 -44 11 -53 1z"/>
<path d="M17796 9371 c-4 -6 -1 -14 7 -17 9 -3 18 -17 21 -30 5 -17 12 -24 24 -22 26 5 27 35 0 44 -13 4 -28 14 -34 22 -8 11 -13 12 -18 3z"/>
<path d="M5107 7104 c-14 -15 -6 -35 18 -44 14 -5 25 -14 25 -20 0 -5 7 -10 15 -10 18 0 20 16 3 27 -7 4 -18 17 -24 27 -12 22 -27 30 -37 20z"/>
</g>
</svg>