<?xml version="1.0" encoding="UTF-8"?>
<svg version="1.1" xmlns="http://www.w3.org/2000/svg" width="512" height="512">
<path d="M0 0 C60.72 0 121.44 0 184 0 C184 60.72 184 121.44 184 184 C123.28 184 62.56 184 0 184 C0 123.28 0 62.56 0 0 Z M96 33 C94.47893366 36.04213267 94.62570662 39.28047572 94.4375 42.625 C94.37272461 43.68460937 94.37272461 43.68460937 94.30664062 44.765625 C94.20055249 46.51018537 94.09977111 48.25506697 94 50 C93.40832031 49.3503125 92.81664062 48.700625 92.20703125 48.03125 C91.41683594 47.1959375 90.62664062 46.360625 89.8125 45.5 C89.03519531 44.6646875 88.25789063 43.829375 87.45703125 42.96875 C85.15600909 40.75907457 85.15600909 40.75907457 82.19921875 40.71875 C81.11060547 40.85796875 81.11060547 40.85796875 80 41 C78.83885404 43.15809278 78.83885404 43.15809278 79 46 C80.60353462 47.73484583 82.394454 49.09234963 84.24780273 50.55639648 C88.98611076 54.35644662 93.28165056 57.94112679 94.71484375 64.04394531 C95.3249402 71.05378635 94.84473244 78.02640884 94 85 C90.87343852 83.37305421 87.77922744 81.69207899 84.6875 80 C83.80642578 79.54238281 82.92535156 79.08476562 82.01757812 78.61328125 C74.75163267 74.57971457 74.75163267 74.57971457 73.03125 70.09375 C72.65706717 68.73719593 72.3126762 67.37203693 72 66 C71.61524352 64.71737131 71.22603699 63.43606771 70.83203125 62.15625 C70.49558594 60.9496875 70.15914062 59.743125 69.8125 58.5 C69.46832031 57.2728125 69.12414062 56.045625 68.76953125 54.78125 C68.51558594 53.8634375 68.26164062 52.945625 68 52 C66.35 51.67 64.7 51.34 63 51 C61.74494171 52.62600939 61.74494171 52.62600939 61 55 C61.62964598 58.31850803 61.62964598 58.31850803 62.875 61.75 C63.26429688 62.92046875 63.65359375 64.0909375 64.0546875 65.296875 C64.36664063 66.18890625 64.67859375 67.0809375 65 68 C64.11957031 67.48308594 63.23914063 66.96617187 62.33203125 66.43359375 C61.15928337 65.76747296 59.98608205 65.10215003 58.8125 64.4375 C58.23435547 64.09525391 57.65621094 63.75300781 57.06054688 63.40039062 C54.16465604 61.78065507 52.41931999 60.9591317 49.07421875 61.28515625 C48.38972656 61.52105469 47.70523438 61.75695312 47 62 C47.03135278 64.3809137 47.03135278 64.3809137 48 67 C50.7322968 69.12868266 50.7322968 69.12868266 54.0625 70.8125 C55.71958984 71.71935547 55.71958984 71.71935547 57.41015625 72.64453125 C58.69212891 73.31548828 58.69212891 73.31548828 60 74 C57.14589666 75.50560497 54.31875358 76.63216796 51.25 77.625 C50.05117188 78.01558594 50.05117188 78.01558594 48.828125 78.4140625 C48.22484375 78.60742188 47.6215625 78.80078125 47 79 C46.61781233 80.65614657 46.28604898 82.32457024 46 84 C46.33 84.33 46.66 84.66 47 85 C53.10194917 84.60632586 58.58043004 83.40597971 64.421875 81.62109375 C67.92427009 80.77733493 70.73780922 80.44732301 74.09643555 81.91796875 C75.10637573 82.54638672 75.10637573 82.54638672 76.13671875 83.1875 C76.87857422 83.63867188 77.62042969 84.08984375 78.38476562 84.5546875 C79.52461914 85.27011719 79.52461914 85.27011719 80.6875 86 C82.20995735 86.94120171 83.73459565 87.87888762 85.26171875 88.8125 C85.93162842 89.23144531 86.60153809 89.65039062 87.29174805 90.08203125 C88.970411 91.15778548 88.970411 91.15778548 91 91 C91 91.66 91 92.32 91 93 C90.31550781 93.24363281 89.63101563 93.48726562 88.92578125 93.73828125 C84.84240802 95.49920188 81.14297894 97.89910752 77.43554688 100.34179688 C72.52892176 103.32914543 69.33952163 103.26703972 64 102 C62.93394531 101.75121094 61.86789062 101.50242187 60.76953125 101.24609375 C58.7902455 100.70486238 56.81107969 100.16319221 54.83203125 99.62109375 C52.11721381 99.0257062 49.76744179 98.8836359 47 99 C46.32041397 101.39719432 46.32041397 101.39719432 46 104 C48.57146057 106.57146057 50.6050417 106.80117997 54.125 107.625 C55.22070312 107.88539063 56.31640625 108.14578125 57.4453125 108.4140625 C58.28835938 108.60742188 59.13140625 108.80078125 60 109 C57.15118272 111.17581687 54.23915912 113.20937999 51.25 115.1875 C50.45078125 115.71730469 49.6515625 116.24710937 48.828125 116.79296875 C48.22484375 117.19128906 47.6215625 117.58960938 47 118 C47.33 119.65 47.66 121.3 48 123 C52.59808129 122.46105575 55.86784369 121.23428472 59.875 118.9375 C60.84179688 118.38964844 61.80859375 117.84179688 62.8046875 117.27734375 C63.89136719 116.64505859 63.89136719 116.64505859 65 116 C64.68804687 116.97582031 64.37609375 117.95164062 64.0546875 118.95703125 C63.66076326 120.24197462 63.26757212 121.52714289 62.875 122.8125 C62.66746094 123.45509766 62.45992188 124.09769531 62.24609375 124.75976562 C61.58058497 126.86951478 61.58058497 126.86951478 61 130 C61.66 130.99 62.32 131.98 63 133 C65.475 132.505 65.475 132.505 68 132 C68.13462646 131.39526855 68.26925293 130.79053711 68.40795898 130.16748047 C69.04771167 127.39335987 69.74186881 124.63561513 70.4375 121.875 C70.64826172 120.92367187 70.85902344 119.97234375 71.07617188 118.9921875 C72.45079635 113.71362952 73.7386995 110.63737517 78.34375 107.53125 C79.87880083 106.65689556 81.43016691 105.81024737 83 105 C84.08410156 104.37351562 85.16820312 103.74703125 86.28515625 103.1015625 C87.20167969 102.61429687 88.11820313 102.12703125 89.0625 101.625 C90.00222656 101.12226563 90.94195312 100.61953125 91.91015625 100.1015625 C92.59980469 99.73804688 93.28945313 99.37453125 94 99 C96.41104172 118.90407676 96.41104172 118.90407676 92.51171875 125.52832031 C89.41564447 129.18688014 85.93309249 132.11231431 82.18359375 135.07421875 C80.34016107 136.47944272 80.34016107 136.47944272 79 138 C78.83885404 140.84190722 78.83885404 140.84190722 80 143 C82.29690079 143.37768357 82.29690079 143.37768357 85 143 C87.54927497 141.05505514 87.54927497 141.05505514 89.8125 138.5 C90.60269531 137.6646875 91.39289063 136.829375 92.20703125 135.96875 C92.79871094 135.3190625 93.39039063 134.669375 94 134 C94.06058594 135.05960937 94.12117188 136.11921875 94.18359375 137.2109375 C94.26800127 138.59897221 94.35264917 139.98699232 94.4375 141.375 C94.47681641 142.07367188 94.51613281 142.77234375 94.55664062 143.4921875 C94.74280134 147.37360492 94.74280134 147.37360492 96 151 C97.65 151 99.3 151 101 151 C102.52106634 147.95786733 102.37429338 144.71952428 102.5625 141.375 C102.62727539 140.31539062 102.62727539 140.31539062 102.69335938 139.234375 C102.79944751 137.48981463 102.90022889 135.74493303 103 134 C103.59167969 134.6496875 104.18335938 135.299375 104.79296875 135.96875 C105.58316406 136.8040625 106.37335938 137.639375 107.1875 138.5 C108.35345703 139.75296875 108.35345703 139.75296875 109.54296875 141.03125 C111.84399091 143.24092543 111.84399091 143.24092543 114.80078125 143.28125 C115.52652344 143.1884375 116.25226563 143.095625 117 143 C117.77514538 141.19607356 117.77514538 141.19607356 118 139 C116.8696615 137.03734599 116.8696615 137.03734599 115.0625 135.25 C114.49660156 134.63640625 113.93070312 134.0228125 113.34765625 133.390625 C111.13514255 131.04046089 111.13514255 131.04046089 108.97802734 129.390625 C105.65492869 126.5593184 103.32560891 124.4623406 102.35571289 120.10644531 C102.21441398 116.86941572 102.29887579 113.73345838 102.5 110.5 C102.53609375 109.39140625 102.5721875 108.2828125 102.609375 107.140625 C102.70307139 104.42342966 102.8340708 101.71358059 103 99 C106.13015534 100.59953686 109.2224557 102.26195974 112.3125 103.9375 C113.19357422 104.38673828 114.07464844 104.83597656 114.98242188 105.29882812 C119.41953862 107.74514724 122.31522244 109.50624819 123.96875 114.4375 C124.33721208 115.9525359 124.68224116 117.47352451 125 119 C125.38542969 120.22847656 125.77085937 121.45695312 126.16796875 122.72265625 C126.50441406 123.82480469 126.84085937 124.92695313 127.1875 126.0625 C127.53167969 127.18785156 127.87585938 128.31320312 128.23046875 129.47265625 C128.48441406 130.30667969 128.73835938 131.14070313 129 132 C130.65614657 132.38218767 132.32457024 132.71395102 134 133 C134.33 132.67 134.66 132.34 135 132 C134.97296549 129.83227214 134.97296549 129.83227214 134.6875 127.3125 C134.60886719 126.46300781 134.53023438 125.61351562 134.44921875 124.73828125 C133.94766027 121.68095521 133.04464468 118.91221353 132 116 C132.88042969 116.51691406 133.76085937 117.03382813 134.66796875 117.56640625 C135.84071663 118.23252704 137.01391795 118.89784997 138.1875 119.5625 C138.76564453 119.90474609 139.34378906 120.24699219 139.93945312 120.59960938 C142.83534396 122.21934493 144.58068001 123.0408683 147.92578125 122.71484375 C148.95251953 122.36099609 148.95251953 122.36099609 150 122 C149.96864722 119.6190863 149.96864722 119.6190863 149 117 C146.2677032 114.87131734 146.2677032 114.87131734 142.9375 113.1875 C141.83277344 112.58292969 140.72804688 111.97835937 139.58984375 111.35546875 C138.73519531 110.90816406 137.88054687 110.46085937 137 110 C139.85410334 108.49439503 142.68124642 107.36783204 145.75 106.375 C146.54921875 106.11460937 147.3484375 105.85421875 148.171875 105.5859375 C148.77515625 105.39257812 149.3784375 105.19921875 150 105 C150.38218767 103.34385343 150.71395102 101.67542976 151 100 C150.67 99.67 150.34 99.34 150 99 C143.91951942 99.39228907 138.5591682 100.58273473 132.7734375 102.4765625 C125.69918671 103.81170279 120.89753254 101.14760075 115.1875 97.4375 C110.89910814 94.29879246 110.89910814 94.29879246 106 93 C106 92.34 106 91.68 106 91 C106.68449219 90.75636719 107.36898437 90.51273438 108.07421875 90.26171875 C112.15759198 88.50079812 115.85702106 86.10089248 119.56445312 83.65820312 C124.47107824 80.67085457 127.66047837 80.73296028 133 82 C134.06605469 82.24878906 135.13210938 82.49757813 136.23046875 82.75390625 C138.2097545 83.29513762 140.18892031 83.83680779 142.16796875 84.37890625 C144.88278619 84.9742938 147.23255821 85.1163641 150 85 C150.33 83.35 150.66 81.7 151 80 C146.37234081 77.45478745 142.1103144 76.1454153 137 75 C139.84881728 72.82418313 142.76084088 70.79062001 145.75 68.8125 C146.54921875 68.28269531 147.3484375 67.75289062 148.171875 67.20703125 C148.77515625 66.80871094 149.3784375 66.41039062 150 66 C149.67 64.35 149.34 62.7 149 61 C144.40191871 61.53894425 141.13215631 62.76571528 137.125 65.0625 C136.15820312 65.61035156 135.19140625 66.15820312 134.1953125 66.72265625 C133.47085938 67.14417969 132.74640625 67.56570313 132 68 C132.2165625 67.34773438 132.433125 66.69546875 132.65625 66.0234375 C134.18502308 61.22478868 135.40269324 57.10078102 135 52 C133.35 51.67 131.7 51.34 130 51 C127.75788571 55.85373904 126.44484288 60.29433433 125.375 65.5625 C124.23309943 70.3122282 123.14468434 73.74271157 118.9375 76.5625 C117.31238511 77.41568532 115.66409681 78.2255935 114 79 C111.97584981 80.11902117 109.95500979 81.24405057 107.9375 82.375 C106.29394336 83.25426898 104.6489278 84.13084554 103 85 C100.58895828 65.09592324 100.58895828 65.09592324 104.48828125 58.47167969 C107.58435553 54.81311986 111.06690751 51.88768569 114.81640625 48.92578125 C116.65983893 47.52055728 116.65983893 47.52055728 118 46 C118.16114596 43.15809278 118.16114596 43.15809278 117 41 C114.70309921 40.62231643 114.70309921 40.62231643 112 41 C109.45072503 42.94494486 109.45072503 42.94494486 107.1875 45.5 C106.39730469 46.3353125 105.60710937 47.170625 104.79296875 48.03125 C104.20128906 48.6809375 103.60960937 49.330625 103 50 C102.93941406 48.94039063 102.87882812 47.88078125 102.81640625 46.7890625 C102.73199873 45.40102779 102.64735083 44.01300768 102.5625 42.625 C102.52318359 41.92632812 102.48386719 41.22765625 102.44335938 40.5078125 C102.25719866 36.62639508 102.25719866 36.62639508 101 33 C99.35 33 97.7 33 96 33 Z " fill="#000000" transform="translate(260,260)"/>
<path d="M0 0 C4.06275085 1.62510034 7.35331756 3.2933182 11.06640625 5.53515625 C11.64874527 5.8854187 12.23108429 6.23568115 12.83106995 6.59655762 C14.74373857 7.74828019 16.65313511 8.90531005 18.5625 10.0625 C19.91047542 10.87585 21.25862265 11.68891532 22.60693359 12.50170898 C26.7411945 14.99580271 30.87091201 17.49735465 35 20 C36.23191434 20.74612555 37.46384721 21.49222048 38.69580078 22.23828125 C45.06839565 26.09846586 51.43637336 29.96620758 57.80168152 33.83839417 C63.61493324 37.37469115 69.43133021 40.90579855 75.24798584 44.43649292 C78.1654514 46.20745194 81.08271561 47.97874256 84 49.75 C85.1666657 50.45833493 86.33333237 51.16666826 87.5 51.875 C150.5 90.125 150.5 90.125 152.24961853 91.18728638 C153.41753549 91.89636682 154.58547376 92.60541217 155.75343323 93.31442261 C158.65114515 95.07353957 161.54849702 96.83324377 164.44506836 98.59423828 C169.92073876 101.92234681 175.4000729 105.2439954 180.89126587 108.54644775 C183.49043621 110.11007632 186.08769778 111.67685984 188.68481445 113.24389648 C189.92572394 113.99141094 191.16757115 114.73737119 192.41040039 115.48168945 C194.13142086 116.51252242 195.84899433 117.54910369 197.56640625 118.5859375 C198.54552979 119.1742334 199.52465332 119.7625293 200.53344727 120.36865234 C202.65660954 121.77288577 204.3035873 123.11906271 206 125 C204.73542969 125.03738281 203.47085938 125.07476562 202.16796875 125.11328125 C200.5077827 125.17893833 198.84762778 125.24538576 197.1875 125.3125 C196.35412109 125.33505859 195.52074219 125.35761719 194.66210938 125.38085938 C193.85966797 125.41630859 193.05722656 125.45175781 192.23046875 125.48828125 C191.49207764 125.51446533 190.75368652 125.54064941 189.99291992 125.56762695 C187.54930122 125.9095904 187.54930122 125.9095904 185 129 C184.67 156.72 184.34 184.44 184 213 C123.28 213 62.56 213 0 213 C0 142.71 0 72.42 0 0 Z M71.30126953 111.47021484 C63.84163179 116.74537299 57.06560698 117.90765426 48 117 C42.79820081 115.73839279 37.91455625 114.16440848 33.328125 111.375 C30.6519449 109.79443726 29.05456006 109.73818057 26 110 C25.67 111.65 25.34 113.3 25 115 C36.07363386 122.54739291 46.57400427 126.02570321 60 125 C67.92037566 123.44720421 74.2357406 119.13903628 80.69873047 114.52978516 C88.45890922 109.0420964 95.58195436 108.09942651 105 109 C110.12789219 110.32101791 114.71898937 112.31204985 119.375 114.8125 C122.43135421 116.19513643 123.85611452 116.01713942 127 115 C126.96949877 112.61364849 126.96949877 112.61364849 126 110 C107.92513974 96.75571914 88.85194216 98.95349129 71.30126953 111.47021484 Z M74.6875 140.5625 C65.02035699 146.75690158 57.82365727 149.54309729 46 148 C40.24719026 146.39470351 34.97553316 144.3170221 30 141 C27.35367713 141.3121764 27.35367713 141.3121764 25 142 C25 143.65 25 145.3 25 147 C27.2058424 148.13011652 29.41445027 149.25415788 31.625 150.375 C32.24246094 150.69210938 32.85992187 151.00921875 33.49609375 151.3359375 C44.02757663 156.6571078 53.52212107 158.26778139 65 155 C70.53272293 152.83904287 75.23507218 149.89108559 80 146.375 C88.00730762 140.67150561 95.06892927 139.37237331 104.8125 140.41796875 C110.70768267 141.49441755 115.82058147 143.62601875 120.875 146.8125 C122.93744413 148.24405599 122.93744413 148.24405599 125.3125 147.6875 C125.869375 147.460625 126.42625 147.23375 127 147 C127.34474198 144.62896247 127.34474198 144.62896247 127 142 C120.07489619 135.21850433 107.71290121 131.94771545 98.25 131.5625 C89.33503686 132.19328612 82.06235785 135.75335962 74.6875 140.5625 Z M77.1875 170.421875 C76.48955322 170.86354004 75.79160645 171.30520508 75.07250977 171.76025391 C73.68300815 172.64845448 72.3026241 173.55113792 70.93334961 174.47021484 C63.66996166 179.22118942 56.17183975 181.21912884 47.46875 179.5 C41.5207535 178.02970873 36.47164678 175.89848089 31.19140625 172.79296875 C28.98050987 171.72420428 28.98050987 171.72420428 26.71484375 172.86328125 C26.14894531 173.23839844 25.58304687 173.61351562 25 174 C24.99428581 176.38930733 24.99428581 176.38930733 26 179 C28.20842218 180.51373993 30.09656051 181.59514032 32.5 182.6875 C33.13639404 182.98857666 33.77278809 183.28965332 34.4284668 183.59985352 C44.73335269 188.32994367 54.58983198 189.62315037 65.46484375 186.04296875 C69.95345223 184.19634554 73.92876342 181.61767298 78 179 C79.80821731 177.88883375 81.62063752 176.78447357 83.4375 175.6875 C84.64212891 174.95080078 84.64212891 174.95080078 85.87109375 174.19921875 C92.80936921 170.29086908 102.28756218 170.97004831 109.7734375 173.046875 C114.14233629 174.71589252 118.10374209 176.40249473 122 179 C124.64632287 178.6878236 124.64632287 178.6878236 127 178 C127 176.35 127 174.7 127 173 C124.7941576 171.86988348 122.58554973 170.74584212 120.375 169.625 C119.44880859 169.14933594 119.44880859 169.14933594 118.50390625 168.6640625 C104.2211766 161.44752541 90.58514619 161.90905726 77.1875 170.421875 Z " fill="#000000" transform="translate(260,39)"/>
<path d="M0 0 C60.72 0 121.44 0 184 0 C184 60.72 184 121.44 184 184 C123.28 184 62.56 184 0 184 C0 123.28 0 62.56 0 0 Z M80 36 C73.83497849 45.59177204 72.70118328 55.1780526 72.52148438 66.28515625 C72.3218545 72.39090908 72.3218545 72.39090908 70.65625 75.54296875 C69 77 69 77 65.9375 77.5625 C55.36540936 76.05220134 49.55445736 69.96457966 43 62 C40.53295688 59.03163261 38.90512038 57.20742342 35 56.3125 C31.55441386 57.10211349 30.22532997 58.42932434 28.078125 61.19921875 C23.91295174 68.1562654 24.06416424 76.13698846 25 84 C27.34488191 92.70793524 33.6011806 98.77223609 41.1953125 103.3125 C49.57934464 107.39934004 60.92705845 109.90334129 70 107 C70.2475 107.59296875 70.495 108.1859375 70.75 108.796875 C72.18968863 111.3343262 73.65151493 112.54044102 76 114.25 C76.70125 114.77078125 77.4025 115.2915625 78.125 115.828125 C79.91415121 117.17666631 79.91415121 117.17666631 82 117 C79.1291332 128.00498941 74.53148417 133.65471149 66 141 C63.61450963 143.12729612 61.49573012 145.14624257 59.875 147.9375 C60.05164683 150.85217267 61.49281273 152.51223656 63.42578125 154.609375 C68.59510674 159.1758263 75.35204996 159.98980376 82 160 C90.51324968 159.22478687 96.92316028 155.449278 102.75 149.3125 C108.08097869 142.89828592 111.02639723 134.69116345 111.2109375 126.375 C111.23929687 125.50359375 111.26765625 124.6321875 111.296875 123.734375 C111.34895244 121.91166465 111.39322571 120.08871458 111.4296875 118.265625 C111.460625 117.39421875 111.4915625 116.5228125 111.5234375 115.625 C111.54325684 114.83351563 111.56307617 114.04203125 111.58349609 113.2265625 C112.09978091 110.46658738 113.10257324 109.04495637 115 107 C120.80341206 106.08258673 126.33565723 108.05762366 131.0546875 111.34375 C135.72493017 115.32002086 139.58419713 120.05832749 143.1875 125 C144.87761815 127.17178629 144.87761815 127.17178629 147.5 127.9375 C150.42214676 128.01055367 151.55384685 127.56743794 154 126 C159.23770764 118.53167832 160.77266704 110.82557678 159.375 101.9375 C157.34230709 93.29855511 152.28457644 86.97421684 145 82 C139.26655268 79.15483065 133.34779295 76.85342581 126.890625 76.90234375 C125.75947266 76.90717773 125.75947266 76.90717773 124.60546875 76.91210938 C123.82816406 76.92048828 123.05085938 76.92886719 122.25 76.9375 C121.45722656 76.94201172 120.66445312 76.94652344 119.84765625 76.95117188 C117.89840492 76.96291435 115.94919262 76.98084854 114 77 C113.7525 76.40703125 113.505 75.8140625 113.25 75.203125 C111.81031137 72.6656738 110.34848507 71.45955898 108 69.75 C107.29875 69.22921875 106.5975 68.7084375 105.875 68.171875 C104.08584879 66.82333369 104.08584879 66.82333369 102 67 C104.74343714 55.25616384 109.96615804 49.36093849 119.609375 42.2734375 C122.40471859 39.61512056 123.2849 37.77190071 124 34 C121.36631267 29.52273154 118.58470213 27.0808859 113.5 25.47265625 C100.20614064 22.95928597 88.98243055 25.70354577 80 36 Z " fill="#000000" transform="translate(68,260)"/>
<path d="M0 0 C0 70.29 0 140.58 0 213 C-60.72 213 -121.44 213 -184 213 C-184.33 185.28 -184.66 157.56 -185 129 C-188.17613982 125.7606516 -188.17613982 125.7606516 -192.23046875 125.48828125 C-193.43413086 125.43510742 -193.43413086 125.43510742 -194.66210938 125.38085938 C-195.49548828 125.35830078 -196.32886719 125.33574219 -197.1875 125.3125 C-198.03248047 125.27833984 -198.87746094 125.24417969 -199.74804688 125.20898438 C-201.83156649 125.12658529 -203.91576216 125.06161355 -206 125 C-202.60069664 122.18250717 -199.1523979 119.76436028 -195.37109375 117.48828125 C-194.26830078 116.82183594 -193.16550781 116.15539062 -192.02929688 115.46875 C-190.83204837 114.74997148 -189.63478226 114.0312223 -188.4375 113.3125 C-187.18401646 112.55636797 -185.93076539 111.79985044 -184.67773438 111.04296875 C-182.07625503 109.47197687 -179.4737866 107.90264288 -176.87060547 106.33447266 C-171.48121672 103.08617761 -166.10408417 99.8177476 -160.72683716 96.54940796 C-157.81847341 94.78198012 -154.90918697 93.01607235 -152 91.25 C-150.83332898 90.54167383 -149.66666231 89.8333405 -148.5 89.125 C-118.16666667 70.70833333 -87.83333333 52.29166667 -57.5 33.875 C-56.92262589 33.52445053 -56.34525177 33.17390106 -55.75038147 32.81272888 C-54.58244646 32.1036273 -53.41450822 31.39453104 -52.24656677 30.68544006 C-49.3492794 28.92640426 -46.45204623 27.16727934 -43.55493164 25.40795898 C-38.07384484 22.07961115 -32.5921752 18.75223306 -27.10873413 15.42776489 C-24.5106842 13.85256424 -21.91292343 12.27688707 -19.31518555 10.70117188 C-18.07346846 9.94816596 -16.83160881 9.1953951 -15.58959961 8.44287109 C-13.8705733 7.40130625 -12.15207137 6.35887612 -10.43359375 5.31640625 C-9.45447021 4.72287354 -8.47534668 4.12934082 -7.46655273 3.51782227 C-1.74987936 0 -1.74987936 0 0 0 Z M-79 77 C-78.5239634 81.99034232 -78.5239634 81.99034232 -77.484375 86.87890625 C-75.54642011 95.36527324 -76.62469533 102.78870379 -80.90625 110.26953125 C-81.2671875 110.84058594 -81.628125 111.41164062 -82 112 C-86 112 -86 112 -88.5625 110.0625 C-92.30054583 105.36598088 -93.40449318 100.22322547 -94.9375 94.5 C-95.72242988 91.9059529 -95.72242988 91.9059529 -97.734375 91.125 C-103.38178001 90.81341903 -108.92107515 97.24953727 -113.02734375 100.70703125 C-123.24482462 110.22944539 -130.67261848 124.67209877 -131.3359375 138.69921875 C-131.66869754 157.08695335 -127.24583072 172.10901893 -114.3515625 185.71484375 C-102.86875302 196.87338785 -89.96790765 202.58962318 -73.9140625 203.09765625 C-59.14326593 202.23003066 -46.64870848 194.57206427 -36.61328125 184.125 C-25.29416194 171.16044298 -19.39782159 153.66481785 -20.15234375 136.54296875 C-22.5949105 117.30484777 -33.06985284 101.34937583 -47.5625 88.875 C-52.67663658 84.95149834 -72.69708976 70.69708976 -79 77 Z " fill="#000000" transform="translate(252,39)"/>
<path d="M0 0 C145.2 0 290.4 0 440 0 C440 7.92 440 15.84 440 24 C294.8 24 149.6 24 0 24 C0 16.08 0 8.16 0 0 Z " fill="#000000" transform="translate(36,452)"/>
<path d="M0 0 C11.72983922 1.70926619 22.26294554 11.10516705 29.4453125 20.04296875 C39.03442927 32.96131433 44.48194596 47.32840674 42.4375 63.625 C40.27405291 74.78455304 36.01225893 84.09679484 29 93 C28.53980469 93.63550781 28.07960938 94.27101563 27.60546875 94.92578125 C21.86312537 102.38917279 12.36044093 108.51925228 3 110 C-11.63825651 111.31876185 -23.61395925 109.46358801 -35.46484375 100.1875 C-45.31726478 91.68618139 -52.9156845 80.05084126 -54.21923828 66.765625 C-55.07650124 49.11820336 -51.52220193 34.87651947 -39.44921875 21.47265625 C-37.43522812 19.42609435 -35.35809026 17.63756268 -33 16 C-32.34 16 -31.68 16 -31 16 C-30.64808594 16.79664063 -30.29617187 17.59328125 -29.93359375 18.4140625 C-26.29139623 26.23099816 -23.13572183 31.86011591 -15 35.25 C-10.36354267 34.86362856 -7.95430155 32.46341662 -5 29 C-1.78138379 23.92971 0.14342799 18.93249496 0.09765625 12.890625 C0.09443359 12.13652344 0.09121094 11.38242188 0.08789062 10.60546875 C0.07951172 9.82816406 0.07113281 9.05085937 0.0625 8.25 C0.05798828 7.45722656 0.05347656 6.66445312 0.04882812 5.84765625 C0.03708565 3.89840492 0.01915146 1.94919262 0 0 Z " fill="#000000" transform="translate(182,124)"/>
<path d="M0 0 C5.20772731 3.15567582 8.74203963 6.96034604 10.234375 12.9296875 C10.97152932 19.44407456 11.14510875 25.4007191 7.234375 30.9296875 C3.27732705 35.52841891 -0.37396576 38.53742226 -6.53515625 39.25 C-13.03171017 39.49515298 -18.6200475 39.19283857 -23.765625 34.9296875 C-27.99784254 30.29925256 -30.62792195 25.51954981 -30.9375 19.1953125 C-30.46456179 12.961127 -28.27843612 7.31714275 -23.765625 2.9296875 C-17.06548241 -2.45955763 -8.00425553 -3.09769211 0 0 Z " fill="#000000" transform="translate(169.765625,333.0703125)"/>
<path d="M0 0 C0.62297499 10.88475745 -0.59734567 20.75104617 -7.53125 29.56640625 C-12.01383038 33.94169083 -17.62595613 35.57957898 -23.75390625 36.046875 C-28.06996696 35.95680069 -32.12648037 34.93675982 -36 33 C-34.51556707 29.25593027 -32.49330686 27.68462761 -29.25 25.375 C-22.76503435 20.34049564 -18.79005106 14.57551849 -16.9375 6.5625 C-16.3125 4.62890625 -16.3125 4.62890625 -15 3 C-10.22725518 1.15429009 -5.13874114 0 0 0 Z " fill="#000000" transform="translate(172,377)"/>
<path d="M0 0 C10.11784426 -0.4351761 19.02517156 0.04590777 27.4375 6.25 C33.72107765 12.99335162 34.43693301 18.57017637 34.3359375 27.73046875 C34.01323126 30.87122594 33.33723268 33.15971779 32 36 C28.25593027 34.51556707 26.68462761 32.49330686 24.375 29.25 C18.16899818 21.2708548 10.53369023 17.76784555 1 15 C0.67 10.05 0.34 5.1 0 0 Z " fill="#000000" transform="translate(186,344)"/>
<path d="M0 0 C3.74406973 1.48443293 5.31537239 3.50669314 7.625 6.75 C13.83100182 14.7291452 21.46630977 18.23215445 31 21 C31.495 28.425 31.495 28.425 32 36 C21.88215574 36.4351761 12.97482844 35.95409223 4.5625 29.75 C-1.72107765 23.00664838 -2.43693301 17.42982363 -2.3359375 8.26953125 C-2.01323126 5.12877406 -1.33723268 2.84028221 0 0 Z " fill="#000000" transform="translate(102,324)"/>
<path d="M0 0 C1.21429688 -0.01417969 2.42859375 -0.02835937 3.6796875 -0.04296875 C6.96844421 0.17702745 9.17865948 0.77034382 12.125 2.1875 C10.64056707 5.93156973 8.61830686 7.50287239 5.375 9.8125 C-2.6041452 16.01850182 -6.10715445 23.65380977 -8.875 33.1875 C-16.3 34.1775 -16.3 34.1775 -23.875 35.1875 C-24.35831816 23.95035288 -23.30581823 14.14819257 -15.875 5.1875 C-10.44647763 1.08841168 -6.73532405 0.03559896 0 0 Z " fill="#000000" transform="translate(171.875,291.8125)"/>
</svg>
